<?xml version="1.0" encoding="utf-8"?>
<!-- Generator: Adobe Illustrator 24.1.1, SVG Export Plug-In . SVG Version: 6.00 Build 0)  -->
<svg version="1.1" id="Capa_1" xmlns="http://www.w3.org/2000/svg" xmlns:xlink="http://www.w3.org/1999/xlink" x="0px" y="0px"
	 viewBox="0 0 477.8 477.8" style="enable-background:new 0 0 477.8 477.8;" xml:space="preserve">
<style type="text/css">
	.st0{fill:#2B89C5;}
</style>
<g>
	<g>
		<path class="st0" d="M441.5,160.6c1.5-8,2.2-16.1,2.3-24.2C443.7,61,382.5,0,307.1,0.1c-57.4,0.1-108.6,36-128.2,90
			c-35-13.9-74.7,3.1-88.7,38.2c-1.2,3-2.2,6.1-3,9.3C31.3,145.9-7.2,198,1.1,254c7.5,50.2,50.6,87.3,101.3,87.3h85.3
			c9.4,0,17.1-7.6,17.1-17.1s-7.6-17.1-17.1-17.1h-85.3c-37.7,0-68.3-30.6-68.3-68.3s30.6-68.3,68.3-68.3c9.4,0,17.1-7.6,17.1-17.1
			c0-18.9,15.3-34.1,34.2-34.1c8.9,0,17.5,3.5,23.8,9.8c6.7,6.6,17.5,6.5,24.1-0.2c2.5-2.5,4.1-5.8,4.7-9.2
			c9.3-55.7,62-93.4,117.7-84.1s93.4,62,84.1,117.7c-0.6,3.3-1.3,6.6-2.1,9.9c-2,7.1,0.9,14.7,7,18.8c31.4,20.8,40,63.2,19.1,94.6
			c-12.6,19-33.9,30.5-56.7,30.5h-51.2c-9.4,0-17.1,7.6-17.1,17.1s7.6,17.1,17.1,17.1h51.2c56.6-0.1,102.4-45.9,102.3-102.5
			C477.8,208.6,464.5,180.1,441.5,160.6z"/>
	</g>
</g>
<g>
	<g>
		<path class="st0" d="M353.1,363.3c-6.6-6.4-17.1-6.4-23.7,0l-56.2,56.2V170.6c0-9.4-7.6-17.1-17.1-17.1s-17.1,7.6-17.1,17.1v248.9
			l-56.2-56.2c-6.8-6.5-17.6-6.4-24.1,0.4c-6.4,6.6-6.4,17.1,0,23.7l85.3,85.3c6.7,6.7,17.5,6.7,24.1,0c0,0,0,0,0,0l85.3-85.3
			C360,380.6,359.9,369.8,353.1,363.3z"/>
	</g>
</g>
</svg>
