<svg xmlns="http://www.w3.org/2000/svg" xmlns:xlink="http://www.w3.org/1999/xlink" viewBox="0 0 1400 350"><defs><style>.cls-1{fill:none;}.cls-2{isolation:isolate;}.cls-3{fill:#190a3f;}.cls-12,.cls-4{mix-blend-mode:overlay;}.cls-14,.cls-5{fill:#fff;}.cls-6{clip-path:url(#clip-path);}.cls-7{mix-blend-mode:color-dodge;}.cls-8{fill:url(#linear-gradient);}.cls-9{fill:url(#linear-gradient-2);}.cls-10{fill:url(#linear-gradient-3);}.cls-11{clip-path:url(#clip-path-2);}.cls-12{fill:#636363;}.cls-13{clip-path:url(#clip-path-3);}.cls-14{font-size:60px;}.cls-14,.cls-20{font-family:GoldenMetafor-Regular, Golden Metafor;}.cls-15{letter-spacing:-0.03em;}.cls-16{letter-spacing:-0.04em;}.cls-17{letter-spacing:-0.02em;}.cls-18{letter-spacing:-0.08em;}.cls-19{letter-spacing:-0.06em;}.cls-20{font-size:22px;fill:#fe6000;}.cls-21{letter-spacing:-0.04em;}.cls-22{letter-spacing:-0.03em;}.cls-23{letter-spacing:0.03em;}</style><clipPath id="clip-path"><rect class="cls-1" x="1094.5" y="98.5" width="305" height="251"/></clipPath><linearGradient id="linear-gradient" x1="-5291.29" y1="797.93" x2="-5118.79" y2="797.93" gradientTransform="translate(-2899.58 -2879.74) rotate(-135)" gradientUnits="userSpaceOnUse"><stop offset="0"/><stop offset="0.11" stop-color="#060606"/><stop offset="0.25" stop-color="#161616"/><stop offset="0.41" stop-color="#323232"/><stop offset="0.59" stop-color="#575757"/><stop offset="0.78" stop-color="#888"/><stop offset="0.97" stop-color="#c3c3c3"/><stop offset="1" stop-color="#ccc"/></linearGradient><linearGradient id="linear-gradient-2" x1="-5182.06" y1="792.81" x2="-4965.18" y2="792.81" gradientTransform="translate(-2934.45 -2785.31) rotate(-135)" xlink:href="#linear-gradient"/><linearGradient id="linear-gradient-3" x1="-5229.85" y1="663.78" x2="-5027.99" y2="663.78" gradientTransform="translate(-2826.79 -2786.91) rotate(-135)" xlink:href="#linear-gradient"/><clipPath id="clip-path-2"><rect class="cls-1" x="1175.09" y="256" width="223.91" height="93.58"/></clipPath><clipPath id="clip-path-3"><rect class="cls-1" y="24" width="138" height="301.88"/></clipPath></defs><g class="cls-2"><g id="Capa_1" data-name="Capa 1"><rect class="cls-3" x="-3" y="-2" width="1407" height="356" transform="translate(1401 352) rotate(180)"/><g class="cls-4"><path class="cls-5" d="M384,344.39a2,2,0,1,0,2,2A2,2,0,0,0,384,344.39Z"/><path class="cls-5" d="M370.37,344.39a2,2,0,1,0,2,2A2,2,0,0,0,370.37,344.39Z"/><path class="cls-5" d="M356.74,344.39a2,2,0,1,0,2,2A2,2,0,0,0,356.74,344.39Z"/><path class="cls-5" d="M343.12,344.39a2,2,0,1,0,2,2A2,2,0,0,0,343.12,344.39Z"/><path class="cls-5" d="M329.49,344.39a2,2,0,1,0,2,2A2,2,0,0,0,329.49,344.39Z"/><path class="cls-5" d="M315.86,344.39a2,2,0,1,0,2,2A2,2,0,0,0,315.86,344.39Z"/><path class="cls-5" d="M302.24,344.39a2,2,0,1,0,2,2A2,2,0,0,0,302.24,344.39Z"/><path class="cls-5" d="M288.61,344.39a2,2,0,1,0,2,2A2,2,0,0,0,288.61,344.39Z"/><path class="cls-5" d="M275,344.39a2,2,0,1,0,2,2A2,2,0,0,0,275,344.39Z"/><path class="cls-5" d="M261.36,344.39a2,2,0,1,0,2,2A2,2,0,0,0,261.36,344.39Z"/><path class="cls-5" d="M247.73,344.39a2,2,0,1,0,2,2A2,2,0,0,0,247.73,344.39Z"/><path class="cls-5" d="M234.1,344.39a2,2,0,1,0,2,2A2,2,0,0,0,234.1,344.39Z"/><path class="cls-5" d="M220.48,344.39a2,2,0,1,0,2,2A2,2,0,0,0,220.48,344.39Z"/><path class="cls-5" d="M206.85,344.39a2,2,0,1,0,2,2A2,2,0,0,0,206.85,344.39Z"/><path class="cls-5" d="M193.23,344.39a2,2,0,1,0,2,2A2,2,0,0,0,193.23,344.39Z"/><path class="cls-5" d="M179.6,344.39a2,2,0,1,0,2,2A2,2,0,0,0,179.6,344.39Z"/><path class="cls-5" d="M166,344.39a2,2,0,1,0,2,2A2,2,0,0,0,166,344.39Z"/><path class="cls-5" d="M152.35,344.39a2,2,0,1,0,2,2A2,2,0,0,0,152.35,344.39Z"/><path class="cls-5" d="M138.72,344.39a2,2,0,1,0,2,2A2,2,0,0,0,138.72,344.39Z"/><path class="cls-5" d="M125.09,344.39a2,2,0,1,0,2,2A2,2,0,0,0,125.09,344.39Z"/><path class="cls-5" d="M111.47,344.39a2,2,0,1,0,2,2A2,2,0,0,0,111.47,344.39Z"/><path class="cls-5" d="M97.84,344.39a2,2,0,1,0,2,2A2,2,0,0,0,97.84,344.39Z"/><path class="cls-5" d="M84.21,344.39a2,2,0,1,0,2,2A2,2,0,0,0,84.21,344.39Z"/><path class="cls-5" d="M70.59,344.39a2,2,0,1,0,2,2A2,2,0,0,0,70.59,344.39Z"/><path class="cls-5" d="M57,344.39a2,2,0,1,0,2,2A2,2,0,0,0,57,344.39Z"/><path class="cls-5" d="M43.33,344.39a2,2,0,1,0,2,2A2,2,0,0,0,43.33,344.39Z"/><path class="cls-5" d="M29.71,344.39a2,2,0,1,0,2,2A2,2,0,0,0,29.71,344.39Z"/><path class="cls-5" d="M16.08,344.39a2,2,0,1,0,2,2A2,2,0,0,0,16.08,344.39Z"/><path class="cls-5" d="M2.45,344.39a2,2,0,1,0,2,2A2,2,0,0,0,2.45,344.39Z"/><path class="cls-5" d="M384,330.76a2,2,0,1,0,2,2A2,2,0,0,0,384,330.76Z"/><path class="cls-5" d="M370.37,330.76a2,2,0,1,0,2,2A2,2,0,0,0,370.37,330.76Z"/><path class="cls-5" d="M356.74,330.76a2,2,0,1,0,2,2A2,2,0,0,0,356.74,330.76Z"/><path class="cls-5" d="M343.12,330.76a2,2,0,1,0,2,2A2,2,0,0,0,343.12,330.76Z"/><path class="cls-5" d="M329.49,330.76a2,2,0,1,0,2,2A2,2,0,0,0,329.49,330.76Z"/><path class="cls-5" d="M315.86,330.76a2,2,0,1,0,2,2A2,2,0,0,0,315.86,330.76Z"/><path class="cls-5" d="M302.24,330.76a2,2,0,1,0,2,2A2,2,0,0,0,302.24,330.76Z"/><path class="cls-5" d="M288.61,330.76a2,2,0,1,0,2,2A2,2,0,0,0,288.61,330.76Z"/><path class="cls-5" d="M275,330.76a2,2,0,1,0,2,2A2,2,0,0,0,275,330.76Z"/><path class="cls-5" d="M261.36,330.76a2,2,0,1,0,2,2A2,2,0,0,0,261.36,330.76Z"/><path class="cls-5" d="M247.73,330.76a2,2,0,1,0,2,2A2,2,0,0,0,247.73,330.76Z"/><path class="cls-5" d="M234.1,330.76a2,2,0,1,0,2,2A2,2,0,0,0,234.1,330.76Z"/><path class="cls-5" d="M220.48,330.76a2,2,0,1,0,2,2A2,2,0,0,0,220.48,330.76Z"/><path class="cls-5" d="M206.85,330.76a2,2,0,1,0,2,2A2,2,0,0,0,206.85,330.76Z"/><path class="cls-5" d="M193.23,330.76a2,2,0,1,0,2,2A2,2,0,0,0,193.23,330.76Z"/><path class="cls-5" d="M179.6,330.76a2,2,0,1,0,2,2A2,2,0,0,0,179.6,330.76Z"/><path class="cls-5" d="M166,330.76a2,2,0,1,0,2,2A2,2,0,0,0,166,330.76Z"/><path class="cls-5" d="M152.35,330.76a2,2,0,1,0,2,2A2,2,0,0,0,152.35,330.76Z"/><path class="cls-5" d="M138.72,330.76a2,2,0,1,0,2,2A2,2,0,0,0,138.72,330.76Z"/><path class="cls-5" d="M125.09,330.76a2,2,0,1,0,2,2A2,2,0,0,0,125.09,330.76Z"/><path class="cls-5" d="M111.47,330.76a2,2,0,1,0,2,2A2,2,0,0,0,111.47,330.76Z"/><path class="cls-5" d="M97.84,330.76a2,2,0,1,0,2,2A2,2,0,0,0,97.84,330.76Z"/><path class="cls-5" d="M84.21,330.76a2,2,0,1,0,2,2A2,2,0,0,0,84.21,330.76Z"/><path class="cls-5" d="M70.59,330.76a2,2,0,1,0,2,2A2,2,0,0,0,70.59,330.76Z"/><path class="cls-5" d="M57,330.76a2,2,0,1,0,2,2A2,2,0,0,0,57,330.76Z"/><path class="cls-5" d="M43.33,330.76a2,2,0,1,0,2,2A2,2,0,0,0,43.33,330.76Z"/><path class="cls-5" d="M29.71,330.76a2,2,0,1,0,2,2A2,2,0,0,0,29.71,330.76Z"/><path class="cls-5" d="M16.08,330.76a2,2,0,1,0,2,2A2,2,0,0,0,16.08,330.76Z"/><path class="cls-5" d="M2.45,330.76a2,2,0,1,0,2,2A2,2,0,0,0,2.45,330.76Z"/><path class="cls-5" d="M384,317.14a2,2,0,1,0,2,2A2,2,0,0,0,384,317.14Z"/><path class="cls-5" d="M370.37,317.14a2,2,0,1,0,2,2A2,2,0,0,0,370.37,317.14Z"/><path class="cls-5" d="M356.74,317.14a2,2,0,1,0,2,2A2,2,0,0,0,356.74,317.14Z"/><path class="cls-5" d="M343.12,317.14a2,2,0,1,0,2,2A2,2,0,0,0,343.12,317.14Z"/><path class="cls-5" d="M329.49,317.14a2,2,0,1,0,2,2A2,2,0,0,0,329.49,317.14Z"/><path class="cls-5" d="M315.86,317.14a2,2,0,1,0,2,2A2,2,0,0,0,315.86,317.14Z"/><path class="cls-5" d="M302.24,317.14a2,2,0,1,0,2,2A2,2,0,0,0,302.24,317.14Z"/><path class="cls-5" d="M288.61,317.14a2,2,0,1,0,2,2A2,2,0,0,0,288.61,317.14Z"/><path class="cls-5" d="M275,317.14a2,2,0,1,0,2,2A2,2,0,0,0,275,317.14Z"/><path class="cls-5" d="M261.36,317.14a2,2,0,1,0,2,2A2,2,0,0,0,261.36,317.14Z"/><path class="cls-5" d="M247.73,317.14a2,2,0,1,0,2,2A2,2,0,0,0,247.73,317.14Z"/><path class="cls-5" d="M234.1,317.14a2,2,0,1,0,2,2A2,2,0,0,0,234.1,317.14Z"/><path class="cls-5" d="M220.48,317.14a2,2,0,1,0,2,2A2,2,0,0,0,220.48,317.14Z"/><path class="cls-5" d="M206.85,317.14a2,2,0,1,0,2,2A2,2,0,0,0,206.85,317.14Z"/><path class="cls-5" d="M193.23,317.14a2,2,0,1,0,2,2A2,2,0,0,0,193.23,317.14Z"/><path class="cls-5" d="M179.6,317.14a2,2,0,1,0,2,2A2,2,0,0,0,179.6,317.14Z"/><path class="cls-5" d="M166,317.14a2,2,0,1,0,2,2A2,2,0,0,0,166,317.14Z"/><path class="cls-5" d="M152.35,317.14a2,2,0,1,0,2,2A2,2,0,0,0,152.35,317.14Z"/><path class="cls-5" d="M138.72,317.14a2,2,0,1,0,2,2A2,2,0,0,0,138.72,317.14Z"/><path class="cls-5" d="M125.09,317.14a2,2,0,1,0,2,2A2,2,0,0,0,125.09,317.14Z"/><path class="cls-5" d="M111.47,317.14a2,2,0,1,0,2,2A2,2,0,0,0,111.47,317.14Z"/><path class="cls-5" d="M97.84,317.14a2,2,0,1,0,2,2A2,2,0,0,0,97.84,317.14Z"/><path class="cls-5" d="M84.21,317.14a2,2,0,1,0,2,2A2,2,0,0,0,84.21,317.14Z"/><path class="cls-5" d="M70.59,317.14a2,2,0,1,0,2,2A2,2,0,0,0,70.59,317.14Z"/><path class="cls-5" d="M57,317.14a2,2,0,1,0,2,2A2,2,0,0,0,57,317.14Z"/><path class="cls-5" d="M43.33,317.14a2,2,0,1,0,2,2A2,2,0,0,0,43.33,317.14Z"/><path class="cls-5" d="M29.71,317.14a2,2,0,1,0,2,2A2,2,0,0,0,29.71,317.14Z"/><path class="cls-5" d="M16.08,317.14a2,2,0,1,0,2,2A2,2,0,0,0,16.08,317.14Z"/><path class="cls-5" d="M2.45,317.14a2,2,0,1,0,2,2A2,2,0,0,0,2.45,317.14Z"/><path class="cls-5" d="M384,303.51a2,2,0,1,0,2,2A2,2,0,0,0,384,303.51Z"/><path class="cls-5" d="M370.37,303.51a2,2,0,1,0,2,2A2,2,0,0,0,370.37,303.51Z"/><path class="cls-5" d="M356.74,303.51a2,2,0,1,0,2,2A2,2,0,0,0,356.74,303.51Z"/><path class="cls-5" d="M343.12,303.51a2,2,0,1,0,2,2A2,2,0,0,0,343.12,303.51Z"/><path class="cls-5" d="M329.49,303.51a2,2,0,1,0,2,2A2,2,0,0,0,329.49,303.51Z"/><path class="cls-5" d="M315.86,303.51a2,2,0,1,0,2,2A2,2,0,0,0,315.86,303.51Z"/><path class="cls-5" d="M302.24,303.51a2,2,0,1,0,2,2A2,2,0,0,0,302.24,303.51Z"/><path class="cls-5" d="M288.61,303.51a2,2,0,1,0,2,2A2,2,0,0,0,288.61,303.51Z"/><path class="cls-5" d="M275,303.51a2,2,0,1,0,2,2A2,2,0,0,0,275,303.51Z"/><path class="cls-5" d="M261.36,303.51a2,2,0,1,0,2,2A2,2,0,0,0,261.36,303.51Z"/><path class="cls-5" d="M247.73,303.51a2,2,0,1,0,2,2A2,2,0,0,0,247.73,303.51Z"/><path class="cls-5" d="M234.1,303.51a2,2,0,1,0,2,2A2,2,0,0,0,234.1,303.51Z"/><path class="cls-5" d="M220.48,303.51a2,2,0,1,0,2,2A2,2,0,0,0,220.48,303.51Z"/><path class="cls-5" d="M206.85,303.51a2,2,0,1,0,2,2A2,2,0,0,0,206.85,303.51Z"/><path class="cls-5" d="M193.23,303.51a2,2,0,1,0,2,2A2,2,0,0,0,193.23,303.51Z"/><path class="cls-5" d="M179.6,303.51a2,2,0,1,0,2,2A2,2,0,0,0,179.6,303.51Z"/><path class="cls-5" d="M166,303.51a2,2,0,1,0,2,2A2,2,0,0,0,166,303.51Z"/><path class="cls-5" d="M152.35,303.51a2,2,0,1,0,2,2A2,2,0,0,0,152.35,303.51Z"/><path class="cls-5" d="M138.72,303.51a2,2,0,1,0,2,2A2,2,0,0,0,138.72,303.51Z"/><path class="cls-5" d="M125.09,303.51a2,2,0,1,0,2,2A2,2,0,0,0,125.09,303.51Z"/><path class="cls-5" d="M111.47,303.51a2,2,0,1,0,2,2A2,2,0,0,0,111.47,303.51Z"/><path class="cls-5" d="M97.84,303.51a2,2,0,1,0,2,2A2,2,0,0,0,97.84,303.51Z"/><path class="cls-5" d="M84.21,303.51a2,2,0,1,0,2,2A2,2,0,0,0,84.21,303.51Z"/><path class="cls-5" d="M70.59,303.51a2,2,0,1,0,2,2A2,2,0,0,0,70.59,303.51Z"/><path class="cls-5" d="M57,303.51a2,2,0,1,0,2,2A2,2,0,0,0,57,303.51Z"/><path class="cls-5" d="M43.33,303.51a2,2,0,1,0,2,2A2,2,0,0,0,43.33,303.51Z"/><path class="cls-5" d="M29.71,303.51a2,2,0,1,0,2,2A2,2,0,0,0,29.71,303.51Z"/><path class="cls-5" d="M16.08,303.51a2,2,0,1,0,2,2A2,2,0,0,0,16.08,303.51Z"/><path class="cls-5" d="M2.45,303.51a2,2,0,1,0,2,2A2,2,0,0,0,2.45,303.51Z"/><path class="cls-5" d="M384,289.88a2,2,0,1,0,2,2A2,2,0,0,0,384,289.88Z"/><path class="cls-5" d="M370.37,289.88a2,2,0,1,0,2,2A2,2,0,0,0,370.37,289.88Z"/><path class="cls-5" d="M356.74,289.88a2,2,0,1,0,2,2A2,2,0,0,0,356.74,289.88Z"/><path class="cls-5" d="M343.12,289.88a2,2,0,1,0,2,2A2,2,0,0,0,343.12,289.88Z"/><path class="cls-5" d="M329.49,289.88a2,2,0,1,0,2,2A2,2,0,0,0,329.49,289.88Z"/><path class="cls-5" d="M315.86,289.88a2,2,0,1,0,2,2A2,2,0,0,0,315.86,289.88Z"/><path class="cls-5" d="M302.24,289.88a2,2,0,1,0,2,2A2,2,0,0,0,302.24,289.88Z"/><path class="cls-5" d="M288.61,289.88a2,2,0,1,0,2,2A2,2,0,0,0,288.61,289.88Z"/><path class="cls-5" d="M275,289.88a2,2,0,1,0,2,2A2,2,0,0,0,275,289.88Z"/><path class="cls-5" d="M261.36,289.88a2,2,0,1,0,2,2A2,2,0,0,0,261.36,289.88Z"/><path class="cls-5" d="M247.73,289.88a2,2,0,1,0,2,2A2,2,0,0,0,247.73,289.88Z"/><path class="cls-5" d="M234.1,289.88a2,2,0,1,0,2,2A2,2,0,0,0,234.1,289.88Z"/><path class="cls-5" d="M220.48,289.88a2,2,0,1,0,2,2A2,2,0,0,0,220.48,289.88Z"/><path class="cls-5" d="M206.85,289.88a2,2,0,1,0,2,2A2,2,0,0,0,206.85,289.88Z"/><path class="cls-5" d="M193.23,289.88a2,2,0,1,0,2,2A2,2,0,0,0,193.23,289.88Z"/><path class="cls-5" d="M179.6,289.88a2,2,0,1,0,2,2A2,2,0,0,0,179.6,289.88Z"/><path class="cls-5" d="M166,289.88a2,2,0,1,0,2,2A2,2,0,0,0,166,289.88Z"/><path class="cls-5" d="M152.35,289.88a2,2,0,1,0,2,2A2,2,0,0,0,152.35,289.88Z"/><path class="cls-5" d="M138.72,289.88a2,2,0,1,0,2,2A2,2,0,0,0,138.72,289.88Z"/><path class="cls-5" d="M125.09,289.88a2,2,0,1,0,2,2A2,2,0,0,0,125.09,289.88Z"/><path class="cls-5" d="M111.47,289.88a2,2,0,1,0,2,2A2,2,0,0,0,111.47,289.88Z"/><path class="cls-5" d="M97.84,289.88a2,2,0,1,0,2,2A2,2,0,0,0,97.84,289.88Z"/><path class="cls-5" d="M84.21,289.88a2,2,0,1,0,2,2A2,2,0,0,0,84.21,289.88Z"/><path class="cls-5" d="M70.59,289.88a2,2,0,1,0,2,2A2,2,0,0,0,70.59,289.88Z"/><path class="cls-5" d="M57,289.88a2,2,0,1,0,2,2A2,2,0,0,0,57,289.88Z"/><path class="cls-5" d="M43.33,289.88a2,2,0,1,0,2,2A2,2,0,0,0,43.33,289.88Z"/><path class="cls-5" d="M29.71,289.88a2,2,0,1,0,2,2A2,2,0,0,0,29.71,289.88Z"/><path class="cls-5" d="M16.08,289.88a2,2,0,1,0,2,2A2,2,0,0,0,16.08,289.88Z"/><path class="cls-5" d="M2.45,289.88a2,2,0,1,0,2,2A2,2,0,0,0,2.45,289.88Z"/><path class="cls-5" d="M384,276.26a2,2,0,1,0,2,2A2,2,0,0,0,384,276.26Z"/><path class="cls-5" d="M370.37,276.26a2,2,0,1,0,2,2A2,2,0,0,0,370.37,276.26Z"/><path class="cls-5" d="M356.74,276.26a2,2,0,1,0,2,2A2,2,0,0,0,356.74,276.26Z"/><path class="cls-5" d="M343.12,276.26a2,2,0,1,0,2,2A2,2,0,0,0,343.12,276.26Z"/><path class="cls-5" d="M329.49,276.26a2,2,0,1,0,2,2A2,2,0,0,0,329.49,276.26Z"/><path class="cls-5" d="M315.86,276.26a2,2,0,1,0,2,2A2,2,0,0,0,315.86,276.26Z"/><path class="cls-5" d="M302.24,276.26a2,2,0,1,0,2,2A2,2,0,0,0,302.24,276.26Z"/><path class="cls-5" d="M288.61,276.26a2,2,0,1,0,2,2A2,2,0,0,0,288.61,276.26Z"/><path class="cls-5" d="M275,276.26a2,2,0,1,0,2,2A2,2,0,0,0,275,276.26Z"/><path class="cls-5" d="M261.36,276.26a2,2,0,1,0,2,2A2,2,0,0,0,261.36,276.26Z"/><path class="cls-5" d="M247.73,276.26a2,2,0,1,0,2,2A2,2,0,0,0,247.73,276.26Z"/><path class="cls-5" d="M234.1,276.26a2,2,0,1,0,2,2A2,2,0,0,0,234.1,276.26Z"/><path class="cls-5" d="M220.48,276.26a2,2,0,1,0,2,2A2,2,0,0,0,220.48,276.26Z"/><path class="cls-5" d="M206.85,276.26a2,2,0,1,0,2,2A2,2,0,0,0,206.85,276.26Z"/><path class="cls-5" d="M193.23,276.26a2,2,0,1,0,2,2A2,2,0,0,0,193.23,276.26Z"/><path class="cls-5" d="M179.6,276.26a2,2,0,1,0,2,2A2,2,0,0,0,179.6,276.26Z"/><path class="cls-5" d="M166,276.26a2,2,0,1,0,2,2A2,2,0,0,0,166,276.26Z"/><path class="cls-5" d="M152.35,276.26a2,2,0,1,0,2,2A2,2,0,0,0,152.35,276.26Z"/><path class="cls-5" d="M138.72,276.26a2,2,0,1,0,2,2A2,2,0,0,0,138.72,276.26Z"/><path class="cls-5" d="M125.09,276.26a2,2,0,1,0,2,2A2,2,0,0,0,125.09,276.26Z"/><path class="cls-5" d="M111.47,276.26a2,2,0,1,0,2,2A2,2,0,0,0,111.47,276.26Z"/><path class="cls-5" d="M97.84,276.26a2,2,0,1,0,2,2A2,2,0,0,0,97.84,276.26Z"/><path class="cls-5" d="M84.21,276.26a2,2,0,1,0,2,2A2,2,0,0,0,84.21,276.26Z"/><path class="cls-5" d="M70.59,276.26a2,2,0,1,0,2,2A2,2,0,0,0,70.59,276.26Z"/><path class="cls-5" d="M57,276.26a2,2,0,1,0,2,2A2,2,0,0,0,57,276.26Z"/><path class="cls-5" d="M43.33,276.26a2,2,0,1,0,2,2A2,2,0,0,0,43.33,276.26Z"/><path class="cls-5" d="M29.71,276.26a2,2,0,1,0,2,2A2,2,0,0,0,29.71,276.26Z"/><path class="cls-5" d="M16.08,276.26a2,2,0,1,0,2,2A2,2,0,0,0,16.08,276.26Z"/><path class="cls-5" d="M2.45,276.26a2,2,0,1,0,2,2A2,2,0,0,0,2.45,276.26Z"/></g><g class="cls-6"><g class="cls-7"><rect class="cls-8" x="1344.36" y="115.39" width="1.61" height="242.34" transform="translate(226.72 1020.46) rotate(-45)"/></g><g class="cls-7"><rect class="cls-9" x="1212.94" y="89.13" width="1.61" height="305.1" transform="translate(184.6 929.03) rotate(-45)"/></g><g class="cls-7"><rect class="cls-10" x="1268.24" y="228.78" width="1.61" height="283.86" transform="translate(109.6 1006.01) rotate(-45)"/></g></g></g><g id="Capa_2" data-name="Capa 2"><g class="cls-11"><path class="cls-12" d="M1369.72,363.07c-46.64,17.14-36.09,17.58-62.92,41.15-27.76,24.38-39.5,8.09-64.24,11.7-30.58,4.47-13.31,52.31-36.7,47.18-8.7-1.91-10.92-4.86-21.86-3.76-4.76.48-16,6.31-30.87.32s-24.16-24.06-15.65-40.51c5.71-11,12.67-17.1,9.74-26.9-4.32-14.47-15.81-34.71,1.77-42.82,19.59-9,42.61,6.6,53.39-16.12C1213,311,1211.14,285.52,1234,266.2c18.77-15.86,36.13-5.37,56.2,7.95,12.12,8.05,22.44,6.59,36.25,3.46,18.76-4.26,39.76,0,53.38,7.45,17.53,9.65,22.76,34,16.48,53.25C1392.25,350.77,1382,358.55,1369.72,363.07Z"/></g><g class="cls-13"><path class="cls-12" d="M-11.5,84.38C-34.07,139.5-34.65,127-65.67,158.73c-32.11,32.8-10.66,46.69-15.42,75.92C-87,270.78-150,250.37-143.2,278c2.51,10.28,6.4,12.9,4.94,25.84-.63,5.61-8.31,18.85-.42,36.48s31.68,28.54,53.35,18.48c14.52-6.74,22.52-15,35.41-11.5,19.05,5.11,45.71,18.68,56.39-2.1,11.89-23.14-8.69-50.35,21.22-63.09,29.38-12.51,62.92-10.34,88.37-37.37,20.88-22.18,7.07-42.69-10.47-66.41C95,164,96.91,151.82,101,135.5c5.6-22.17,0-47-9.82-63.07C78.52,51.71,46.46,45.53,21.11,53,4.7,57.76-5.54,69.84-11.5,84.38Z"/></g></g><g id="Capa_3" data-name="Capa 3"><text class="cls-14" transform="translate(474.78 167.88)">G<tspan class="cls-15" x="50.04" y="0">o</tspan><tspan class="cls-16" x="85.02" y="0">l</tspan><tspan x="109.62" y="0">d</tspan><tspan class="cls-17" x="149.88" y="0">e</tspan><tspan x="184.2" y="0">n </tspan><tspan class="cls-18" x="256.8" y="0">M</tspan><tspan x="326.34" y="0">eta</tspan><tspan class="cls-19" x="426.6" y="0">f</tspan><tspan class="cls-17" x="450.96" y="0">o</tspan><tspan x="486.54" y="0">r</tspan></text><text class="cls-20" transform="translate(616.88 208.94)">by Ku<tspan class="cls-21" x="77.33" y="0">l</tspan><tspan class="cls-22" x="86.35" y="0">o</tspan><tspan x="99.18" y="0">ka</tspan><tspan class="cls-21" x="130.52" y="0">l</tspan><tspan x="139.54" y="0">e </tspan><tspan class="cls-23" x="161.96" y="0">S</tspan><tspan x="180.35" y="0">tudio</tspan></text></g></g></svg>