<svg xmlns="http://www.w3.org/2000/svg" xmlns:xlink="http://www.w3.org/1999/xlink" viewBox="0 0 1400 350"><defs><style>.cls-1{fill:none;}.cls-2{isolation:isolate;}.cls-3{fill:#190a3f;}.cls-4{clip-path:url(#clip-path);}.cls-5{fill:#636363;}.cls-5,.cls-6{mix-blend-mode:overlay;}.cls-22,.cls-7{fill:#fff;}.cls-8{fill:#4f4f4f;}.cls-9{mix-blend-mode:color-dodge;}.cls-10{fill:url(#linear-gradient);}.cls-11{fill:url(#linear-gradient-2);}.cls-12{clip-path:url(#clip-path-2);}.cls-13{fill:url(#linear-gradient-3);}.cls-14{opacity:0.43;}.cls-15{fill:#a883cc;}.cls-16{clip-path:url(#clip-path-3);}.cls-17{clip-path:url(#clip-path-4);}.cls-18{fill:url(#linear-gradient-4);}.cls-19{fill:url(#linear-gradient-5);}.cls-20{fill:url(#linear-gradient-6);}.cls-21{clip-path:url(#clip-path-5);}.cls-22{font-size:60px;font-family:Mont-HeavyDEMO, Mont;font-weight:800;}.cls-23{letter-spacing:-0.01em;}.cls-24{letter-spacing:-0.03em;}.cls-25{font-size:22px;fill:#fe6000;font-family:Mont-ExtraLightDEMO, Mont;font-weight:200;}.cls-26{letter-spacing:-0.01em;}.cls-27{letter-spacing:-0.03em;}.cls-28{letter-spacing:0em;}.cls-29{letter-spacing:-0.01em;}.cls-30{letter-spacing:-0.02em;}.cls-31{letter-spacing:-0.03em;}.cls-32{letter-spacing:-0.07em;}</style><clipPath id="clip-path"><rect class="cls-1" x="-602" width="582" height="350" transform="translate(-622 350) rotate(180)"/></clipPath><linearGradient id="linear-gradient" x1="-2909.88" y1="200.44" x2="-2737.38" y2="200.44" gradientTransform="matrix(-0.71, -0.71, -0.71, 0.71, -1857.43, -1937.9)" gradientUnits="userSpaceOnUse"><stop offset="0"/><stop offset="0.11" stop-color="#060606"/><stop offset="0.25" stop-color="#161616"/><stop offset="0.41" stop-color="#323232"/><stop offset="0.59" stop-color="#575757"/><stop offset="0.78" stop-color="#888"/><stop offset="0.97" stop-color="#c3c3c3"/><stop offset="1" stop-color="#ccc"/></linearGradient><linearGradient id="linear-gradient-2" x1="-2848.43" y1="66.29" x2="-2646.58" y2="66.29" gradientTransform="matrix(-0.71, -0.71, -0.71, 0.71, -1974.73, -1923.23)" xlink:href="#linear-gradient"/><clipPath id="clip-path-2"><rect class="cls-1" x="-157.05" y="60.52" width="447" height="131.95" transform="translate(-60.05 192.94) rotate(-90)"/></clipPath><linearGradient id="linear-gradient-3" x1="-2974.51" y1="307.16" x2="-2616.41" y2="307.16" gradientTransform="translate(216 3042.18) rotate(90)" gradientUnits="userSpaceOnUse"><stop offset="0" stop-color="#0c042e"/><stop offset="0.33" stop-color="#221c3a"/><stop offset="1" stop-color="#575757"/></linearGradient><clipPath id="clip-path-3"><rect class="cls-1" x="938" width="462" height="54.35"/></clipPath><clipPath id="clip-path-4"><rect class="cls-1" x="1125.52" y="235" width="273.98" height="114.5"/></clipPath><linearGradient id="linear-gradient-4" x1="-3890.95" y1="216.36" x2="-3735.13" y2="216.36" gradientTransform="translate(2930.54 2759.6) rotate(45)" xlink:href="#linear-gradient"/><linearGradient id="linear-gradient-5" x1="-3795.28" y1="211.73" x2="-3599.37" y2="211.73" gradientTransform="translate(2961.16 2676.42) rotate(45)" xlink:href="#linear-gradient"/><linearGradient id="linear-gradient-6" x1="-3838.45" y1="95.17" x2="-3656.1" y2="95.17" gradientTransform="translate(2863.93 2677.79) rotate(45)" xlink:href="#linear-gradient"/><clipPath id="clip-path-5"><rect class="cls-1" x="1420" y="24" width="138" height="301.88"/></clipPath></defs><g class="cls-2"><g id="Capa_1" data-name="Capa 1"><rect class="cls-3" x="-3" y="-2" width="1407" height="356" transform="translate(1401 352) rotate(180)"/></g><g id="Capa_2" data-name="Capa 2"><g class="cls-4"><path class="cls-5" d="M241.54,337.93C127.21,380,153.06,381,87.31,438.79c-68,59.77-96.84,19.84-157.48,28.69-75,10.95-32.61,128.22-89.95,115.64-21.33-4.68-26.76-11.92-53.6-9.21-11.65,1.17-39.1,15.47-75.67.78s-59.21-59-38.34-99.31c14-27,31-41.92,23.86-65.93-10.6-35.46-38.75-85.09,4.35-105,48-22.14,104.44,16.19,130.87-39.51,26-54.68,21.46-117.14,77.53-164.51,46-38.88,88.55-13.17,137.76,19.5,29.7,19.72,55,16.14,88.86,8.47,46-10.43,97.46-.09,130.84,18.27,43,23.64,55.79,83.34,40.4,130.52C296.78,307.78,271.7,326.84,241.54,337.93Z"/><g class="cls-6"><path class="cls-7" d="M-585.9,381.77l-.17-.78c28.25-6.3,49.62-28.22,70.29-49.41,21.47-22,43.68-44.81,73.58-49.85,24.2-4.09,48,4.51,71.07,12.84,9.91,3.57,20.16,7.27,30.32,9.93C-298,315.68-250,308.38-212.47,285c10.4-6.48,20.26-14.25,29.8-21.77,15-11.86,30.59-24.12,48.56-31.49,33.71-13.81,71.3-9.06,107.66-4.47,6.12.78,12.45,1.58,18.62,2.27C48,235.78,88,226,110.93,200.33c16.68-18.61,24.62-47,21.78-77.77-2.56-27.84-12.7-54.32-22.52-79.93l.75-.29c9.84,25.67,20,52.2,22.57,80.15,2.86,31-5.15,59.6-22,78.37-13,14.48-31.33,24-54.57,28.45-18.5,3.5-39.72,3.84-64.88,1-6.18-.69-12.51-1.49-18.63-2.26-36.25-4.58-73.74-9.32-107.26,4.41-17.86,7.33-33.37,19.56-48.36,31.38-9.56,7.53-19.44,15.32-29.88,21.82-37.74,23.5-85.95,30.82-129,19.59-10.19-2.66-20.45-6.36-30.38-9.95-23-8.28-46.68-16.85-70.67-12.8-29.64,5-51.75,27.68-73.14,49.62C-536,353.42-557.41,375.42-585.9,381.77Z"/></g><g class="cls-6"><path class="cls-8" d="M96.29,540.17A158.79,158.79,0,1,1,208.6,269.07,158.79,158.79,0,0,1,96.29,540.17Zm0-316.78c-87.12,0-158,70.87-158,158s70.87,158,158,158,158-70.87,158-158S183.4,223.39,96.29,223.39Z"/><path class="cls-8" d="M96.29,520.37c-76.64,0-139-62.35-139-139s62.36-139,139-139,139,62.35,139,139S172.93,520.37,96.29,520.37Zm0-277.18c-76.2,0-138.19,62-138.19,138.19s62,138.19,138.19,138.19,138.19-62,138.19-138.19S172.49,243.19,96.29,243.19Z"/><path class="cls-8" d="M96.29,500.58a119.2,119.2,0,1,1,119.19-119.2A119.34,119.34,0,0,1,96.29,500.58Zm0-237.59A118.39,118.39,0,1,0,214.68,381.38,118.52,118.52,0,0,0,96.29,263Z"/><path class="cls-8" d="M96.29,480.78a99.4,99.4,0,1,1,99.39-99.4A99.51,99.51,0,0,1,96.29,480.78Zm0-198a98.59,98.59,0,1,0,98.59,98.59A98.71,98.71,0,0,0,96.29,282.79Z"/><path class="cls-8" d="M96.29,461a79.6,79.6,0,1,1,79.59-79.6A79.69,79.69,0,0,1,96.29,461Zm0-158.39a78.79,78.79,0,1,0,78.79,78.79A78.88,78.88,0,0,0,96.29,302.59Z"/></g><g class="cls-9"><rect class="cls-10" x="-123.73" y="199.64" width="242.34" height="1.61" transform="translate(-142.48 56.9) rotate(-45)"/></g><g class="cls-9"><rect class="cls-11" x="-220.61" y="65.48" width="283.86" height="1.61" transform="translate(-69.91 -36.22) rotate(-45)"/></g></g><g class="cls-12"><path class="cls-13" d="M-125,425.74c21.13.86,39.16-14.49,46.92-33.17,8.79-21.13,11-38.55,33.22-46,7.17-2.4,17.25-6.09,23.47-10.47,22.89-16.09,11.27-43.89,7.55-65.5-3.5-20.28,6.1-35.25,19.71-58.22.09-.15,48.33-51.1-8.71-62.79-10.57-2.17-18.93-1.83-24.66-2.58-22.54-3-24.73-22.81-41.88-50.83C-91.09,60.76-137,55.07-145.76,97.84c-3.36,16.43-2.17,30.05-7.3,46.1-10.48,32.79-41.72,34.22-51.08,62.71-4.5,10.38-3.74,24.87-.75,34.35,11.52,36.54,28.46,48.9,24.35,77.16-1.4,9.6-5,21.83-5.07,35.84C-185.87,390.08-158.24,424.4-125,425.74Z"/><path class="cls-5" d="M-67.32,61.75c-26.76,72.83-27.45,56.36-64.25,98.25-38.08,43.35-12.63,61.69-18.28,100.32-7,47.75-81.67,20.77-73.66,57.3,3,13.59,7.59,17.05,5.87,34.15-.75,7.42-9.86,24.91-.5,48.2s37.57,37.72,63.26,24.43c17.22-8.91,26.71-19.77,42-15.2C-90.29,416-58.67,433.88-46,406.43c14.11-30.58-10.31-66.53,25.17-83.37C14,306.52,53.78,309.39,84,273.67c24.77-29.31,8.39-56.41-12.42-87.76C59,167,61.26,150.86,66.15,129.3,72.79,100,66.2,67.21,54.51,46,39.45,18.57,1.42,10.41-28.64,20.21-48.11,26.56-60.25,42.54-67.32,61.75Z"/><g class="cls-14"><path class="cls-15" d="M-87.94,254.48a100.55,100.55,0,0,1,71.55-29.61,100.51,100.51,0,0,1,71.54,29.61A100.52,100.52,0,0,1,84.77,326a100.52,100.52,0,0,1-29.62,71.55,100.51,100.51,0,0,1-71.54,29.61,100.55,100.55,0,0,1-71.55-29.61A100.55,100.55,0,0,1-117.55,326,100.55,100.55,0,0,1-87.94,254.48Zm71.55-29.1A100.76,100.76,0,0,0-117,326,100.76,100.76,0,0,0-16.39,426.68,100.75,100.75,0,0,0,84.25,326,100.75,100.75,0,0,0-16.39,225.38Z"/><path class="cls-15" d="M-16.39,237.49A88.64,88.64,0,0,1,72.15,326a88.65,88.65,0,0,1-88.54,88.55A88.65,88.65,0,0,1-104.94,326,88.64,88.64,0,0,1-16.39,237.49Zm0,.51a88.14,88.14,0,0,0-88,88,88.14,88.14,0,0,0,88,88,88.13,88.13,0,0,0,88-88A88.13,88.13,0,0,0-16.39,238Z"/><path class="cls-15" d="M-16.39,250.1A76,76,0,0,1,59.54,326,76,76,0,0,1-16.39,402,76,76,0,0,1-92.32,326,76,76,0,0,1-16.39,250.1Zm0,.51A75.5,75.5,0,0,0-91.81,326a75.5,75.5,0,0,0,75.42,75.42A75.5,75.5,0,0,0,59,326,75.5,75.5,0,0,0-16.39,250.61Z"/><path class="cls-15" d="M-16.39,262.71A63.4,63.4,0,0,1,46.93,326a63.39,63.39,0,0,1-63.32,63.32A63.38,63.38,0,0,1-79.71,326,63.39,63.39,0,0,1-16.39,262.71Zm0,.51A62.89,62.89,0,0,0-79.2,326a62.89,62.89,0,0,0,62.81,62.81A62.89,62.89,0,0,0,46.42,326,62.89,62.89,0,0,0-16.39,263.22Z"/><path class="cls-15" d="M-16.39,275.32A50.76,50.76,0,0,1,34.31,326a50.76,50.76,0,0,1-50.7,50.71A50.77,50.77,0,0,1-67.1,326,50.77,50.77,0,0,1-16.39,275.32Zm0,.52A50.25,50.25,0,0,0-66.59,326a50.26,50.26,0,0,0,50.2,50.2A50.25,50.25,0,0,0,33.8,326,50.24,50.24,0,0,0-16.39,275.84Z"/></g></g><g class="cls-16"><g class="cls-6"><circle class="cls-7" cx="950.32" cy="13.32" r="2.4"/><circle class="cls-7" cx="966.62" cy="13.32" r="2.4"/><circle class="cls-7" cx="982.92" cy="13.32" r="2.4"/><circle class="cls-7" cx="999.22" cy="13.32" r="2.4"/><circle class="cls-7" cx="1015.52" cy="13.32" r="2.4"/><circle class="cls-7" cx="1031.82" cy="13.32" r="2.4"/><circle class="cls-7" cx="1048.13" cy="13.32" r="2.4"/><circle class="cls-7" cx="1064.43" cy="13.32" r="2.4"/><circle class="cls-7" cx="1080.73" cy="13.32" r="2.4"/><circle class="cls-7" cx="1097.03" cy="13.32" r="2.4"/><circle class="cls-7" cx="1113.33" cy="13.32" r="2.4"/><circle class="cls-7" cx="1129.63" cy="13.32" r="2.4"/><circle class="cls-7" cx="1145.93" cy="13.32" r="2.4"/><circle class="cls-7" cx="1162.23" cy="13.32" r="2.4"/><circle class="cls-7" cx="1178.54" cy="13.32" r="2.4"/><circle class="cls-7" cx="1194.84" cy="13.32" r="2.4"/><circle class="cls-7" cx="1211.14" cy="13.32" r="2.4"/><circle class="cls-7" cx="1227.44" cy="13.32" r="2.4"/><circle class="cls-7" cx="1243.74" cy="13.32" r="2.4"/><circle class="cls-7" cx="1260.04" cy="13.32" r="2.4"/><circle class="cls-7" cx="1276.34" cy="13.32" r="2.4"/><circle class="cls-7" cx="1292.64" cy="13.32" r="2.4"/><circle class="cls-7" cx="1308.95" cy="13.32" r="2.4"/><circle class="cls-7" cx="1325.25" cy="13.32" r="2.4"/><circle class="cls-7" cx="1341.55" cy="13.32" r="2.4"/><circle class="cls-7" cx="1357.85" cy="13.32" r="2.4"/><circle class="cls-7" cx="1374.15" cy="13.32" r="2.4"/><circle class="cls-7" cx="1390.45" cy="13.32" r="2.4"/><circle class="cls-7" cx="950.32" cy="29.63" r="2.4"/><circle class="cls-7" cx="966.62" cy="29.63" r="2.4"/><circle class="cls-7" cx="982.92" cy="29.63" r="2.4"/><circle class="cls-7" cx="999.22" cy="29.63" r="2.4"/><circle class="cls-7" cx="1015.52" cy="29.63" r="2.4"/><circle class="cls-7" cx="1031.82" cy="29.63" r="2.4"/><circle class="cls-7" cx="1048.13" cy="29.63" r="2.4"/><circle class="cls-7" cx="1064.43" cy="29.63" r="2.4"/><circle class="cls-7" cx="1080.73" cy="29.63" r="2.4"/><circle class="cls-7" cx="1097.03" cy="29.63" r="2.4"/><circle class="cls-7" cx="1113.33" cy="29.63" r="2.4"/><circle class="cls-7" cx="1129.63" cy="29.63" r="2.4"/><circle class="cls-7" cx="1145.93" cy="29.63" r="2.4"/><circle class="cls-7" cx="1162.23" cy="29.63" r="2.4"/><circle class="cls-7" cx="1178.54" cy="29.63" r="2.4"/><circle class="cls-7" cx="1194.84" cy="29.63" r="2.4"/><circle class="cls-7" cx="1211.14" cy="29.63" r="2.4"/><circle class="cls-7" cx="1227.44" cy="29.63" r="2.4"/><circle class="cls-7" cx="1243.74" cy="29.63" r="2.4"/><circle class="cls-7" cx="1260.04" cy="29.63" r="2.4"/><circle class="cls-7" cx="1276.34" cy="29.63" r="2.4"/><circle class="cls-7" cx="1292.64" cy="29.63" r="2.4"/><circle class="cls-7" cx="1308.95" cy="29.63" r="2.4"/><circle class="cls-7" cx="1325.25" cy="29.63" r="2.4"/><circle class="cls-7" cx="1341.55" cy="29.63" r="2.4"/><circle class="cls-7" cx="1357.85" cy="29.63" r="2.4"/><circle class="cls-7" cx="1374.15" cy="29.63" r="2.4"/><circle class="cls-7" cx="1390.45" cy="29.63" r="2.4"/><circle class="cls-7" cx="950.32" cy="45.93" r="2.4"/><circle class="cls-7" cx="966.62" cy="45.93" r="2.4"/><circle class="cls-7" cx="982.92" cy="45.93" r="2.4"/><circle class="cls-7" cx="999.22" cy="45.93" r="2.4"/><circle class="cls-7" cx="1015.52" cy="45.93" r="2.4"/><circle class="cls-7" cx="1031.82" cy="45.93" r="2.4"/><circle class="cls-7" cx="1048.13" cy="45.93" r="2.4"/><circle class="cls-7" cx="1064.43" cy="45.93" r="2.4"/><circle class="cls-7" cx="1080.73" cy="45.93" r="2.4"/><circle class="cls-7" cx="1097.03" cy="45.93" r="2.4"/><circle class="cls-7" cx="1113.33" cy="45.93" r="2.4"/><circle class="cls-7" cx="1129.63" cy="45.93" r="2.4"/><circle class="cls-7" cx="1145.93" cy="45.93" r="2.4"/><circle class="cls-7" cx="1162.23" cy="45.93" r="2.4"/><circle class="cls-7" cx="1178.54" cy="45.93" r="2.4"/><circle class="cls-7" cx="1194.84" cy="45.93" r="2.4"/><circle class="cls-7" cx="1211.14" cy="45.93" r="2.4"/><circle class="cls-7" cx="1227.44" cy="45.93" r="2.4"/><circle class="cls-7" cx="1243.74" cy="45.93" r="2.4"/><circle class="cls-7" cx="1260.04" cy="45.93" r="2.4"/><circle class="cls-7" cx="1276.34" cy="45.93" r="2.4"/><circle class="cls-7" cx="1292.64" cy="45.93" r="2.4"/><circle class="cls-7" cx="1308.95" cy="45.93" r="2.4"/><circle class="cls-7" cx="1325.25" cy="45.93" r="2.4"/><circle class="cls-7" cx="1341.55" cy="45.93" r="2.4"/><circle class="cls-7" cx="1357.85" cy="45.93" r="2.4"/><circle class="cls-7" cx="1374.15" cy="45.93" r="2.4"/><circle class="cls-7" cx="1390.45" cy="45.93" r="2.4"/><circle class="cls-7" cx="950.32" cy="62.23" r="2.4"/><circle class="cls-7" cx="966.62" cy="62.23" r="2.4"/><circle class="cls-7" cx="982.92" cy="62.23" r="2.4"/><circle class="cls-7" cx="999.22" cy="62.23" r="2.4"/><circle class="cls-7" cx="1015.52" cy="62.23" r="2.4"/><circle class="cls-7" cx="1031.82" cy="62.23" r="2.4"/><circle class="cls-7" cx="1048.13" cy="62.23" r="2.4"/><circle class="cls-7" cx="1064.43" cy="62.23" r="2.4"/><circle class="cls-7" cx="1080.73" cy="62.23" r="2.4"/><circle class="cls-7" cx="1097.03" cy="62.23" r="2.4"/><circle class="cls-7" cx="1113.33" cy="62.23" r="2.4"/><circle class="cls-7" cx="1129.63" cy="62.23" r="2.4"/><circle class="cls-7" cx="1145.93" cy="62.23" r="2.4"/><circle class="cls-7" cx="1162.23" cy="62.23" r="2.4"/><circle class="cls-7" cx="1178.54" cy="62.23" r="2.4"/><circle class="cls-7" cx="1194.84" cy="62.23" r="2.4"/><circle class="cls-7" cx="1211.14" cy="62.23" r="2.4"/><circle class="cls-7" cx="1227.44" cy="62.23" r="2.4"/><circle class="cls-7" cx="1243.74" cy="62.23" r="2.4"/><circle class="cls-7" cx="1260.04" cy="62.23" r="2.4"/><circle class="cls-7" cx="1276.34" cy="62.23" r="2.4"/><circle class="cls-7" cx="1292.64" cy="62.23" r="2.4"/><circle class="cls-7" cx="1308.95" cy="62.23" r="2.4"/><circle class="cls-7" cx="1325.25" cy="62.23" r="2.4"/><circle class="cls-7" cx="1341.55" cy="62.23" r="2.4"/><circle class="cls-7" cx="1357.85" cy="62.23" r="2.4"/><circle class="cls-7" cx="1374.15" cy="62.23" r="2.4"/><circle class="cls-7" cx="1390.45" cy="62.23" r="2.4"/><circle class="cls-7" cx="950.32" cy="78.53" r="2.4"/><circle class="cls-7" cx="966.62" cy="78.53" r="2.4"/><circle class="cls-7" cx="982.92" cy="78.53" r="2.4"/><circle class="cls-7" cx="999.22" cy="78.53" r="2.4"/><circle class="cls-7" cx="1015.52" cy="78.53" r="2.4"/><circle class="cls-7" cx="1031.82" cy="78.53" r="2.4"/><circle class="cls-7" cx="1048.13" cy="78.53" r="2.4"/><circle class="cls-7" cx="1064.43" cy="78.53" r="2.4"/><circle class="cls-7" cx="1080.73" cy="78.53" r="2.4"/><circle class="cls-7" cx="1097.03" cy="78.53" r="2.4"/><circle class="cls-7" cx="1113.33" cy="78.53" r="2.4"/><circle class="cls-7" cx="1129.63" cy="78.53" r="2.4"/><circle class="cls-7" cx="1145.93" cy="78.53" r="2.4"/><circle class="cls-7" cx="1162.23" cy="78.53" r="2.4"/><circle class="cls-7" cx="1178.54" cy="78.53" r="2.4"/><circle class="cls-7" cx="1194.84" cy="78.53" r="2.4"/><circle class="cls-7" cx="1211.14" cy="78.53" r="2.4"/><circle class="cls-7" cx="1227.44" cy="78.53" r="2.4"/><circle class="cls-7" cx="1243.74" cy="78.53" r="2.4"/><circle class="cls-7" cx="1260.04" cy="78.53" r="2.4"/><circle class="cls-7" cx="1276.34" cy="78.53" r="2.4"/><circle class="cls-7" cx="1292.64" cy="78.53" r="2.4"/><circle class="cls-7" cx="1308.95" cy="78.53" r="2.4"/><circle class="cls-7" cx="1325.25" cy="78.53" r="2.4"/><circle class="cls-7" cx="1341.55" cy="78.53" r="2.4"/><circle class="cls-7" cx="1357.85" cy="78.53" r="2.4"/><circle class="cls-7" cx="1374.15" cy="78.53" r="2.4"/><circle class="cls-7" cx="1390.45" cy="78.53" r="2.4"/><circle class="cls-7" cx="950.32" cy="94.83" r="2.4"/><circle class="cls-7" cx="966.62" cy="94.83" r="2.4"/><circle class="cls-7" cx="982.92" cy="94.83" r="2.4"/><circle class="cls-7" cx="999.22" cy="94.83" r="2.4"/><circle class="cls-7" cx="1015.52" cy="94.83" r="2.4"/><circle class="cls-7" cx="1031.82" cy="94.83" r="2.4"/><circle class="cls-7" cx="1048.13" cy="94.83" r="2.4"/><circle class="cls-7" cx="1064.43" cy="94.83" r="2.4"/><circle class="cls-7" cx="1080.73" cy="94.83" r="2.4"/><circle class="cls-7" cx="1097.03" cy="94.83" r="2.4"/><circle class="cls-7" cx="1113.33" cy="94.83" r="2.4"/><circle class="cls-7" cx="1129.63" cy="94.83" r="2.4"/><circle class="cls-7" cx="1145.93" cy="94.83" r="2.4"/><circle class="cls-7" cx="1162.23" cy="94.83" r="2.4"/><circle class="cls-7" cx="1178.54" cy="94.83" r="2.4"/><circle class="cls-7" cx="1194.84" cy="94.83" r="2.4"/><circle class="cls-7" cx="1211.14" cy="94.83" r="2.4"/><circle class="cls-7" cx="1227.44" cy="94.83" r="2.4"/><circle class="cls-7" cx="1243.74" cy="94.83" r="2.4"/><circle class="cls-7" cx="1260.04" cy="94.83" r="2.4"/><circle class="cls-7" cx="1276.34" cy="94.83" r="2.4"/><circle class="cls-7" cx="1292.64" cy="94.83" r="2.4"/><circle class="cls-7" cx="1308.95" cy="94.83" r="2.4"/><circle class="cls-7" cx="1325.25" cy="94.83" r="2.4"/><circle class="cls-7" cx="1341.55" cy="94.83" r="2.4"/><circle class="cls-7" cx="1357.85" cy="94.83" r="2.4"/><circle class="cls-7" cx="1374.15" cy="94.83" r="2.4"/><circle class="cls-7" cx="1390.45" cy="94.83" r="2.4"/></g></g><g class="cls-17"><path class="cls-5" d="M1363.67,366c-57.07,21-44.16,21.51-77,50.34-34,29.84-48.34,9.9-78.6,14.33-37.42,5.46-16.28,64-44.9,57.72-10.65-2.34-13.37-6-26.76-4.6-5.82.59-19.52,7.72-37.77.39s-29.56-29.44-19.14-49.57c7-13.49,15.49-20.93,11.91-32.91-5.29-17.7-19.34-42.48,2.17-52.4,24-11.05,52.13,8.08,65.33-19.72,12.95-27.3,10.71-58.47,38.69-82.12,23-19.41,44.21-6.57,68.77,9.73,14.83,9.84,27.47,8.06,44.36,4.23,23-5.21,48.65-.05,65.31,9.12,21.45,11.8,27.85,41.6,20.17,65.15C1391.24,351,1378.73,360.48,1363.67,366Z"/></g><g class="cls-9"><rect class="cls-18" x="80.6" y="106.9" width="1.45" height="218.92" transform="translate(-129.17 120.87) rotate(-45)"/></g><g class="cls-9"><rect class="cls-19" x="196.32" y="73.93" width="1.45" height="275.61" transform="translate(-92 201.35) rotate(-45)"/></g><g class="cls-9"><rect class="cls-20" x="146.36" y="-33.04" width="1.45" height="256.42" transform="translate(-24.21 131.9) rotate(-45)"/></g><g class="cls-6"><path class="cls-7" d="M1385.9,235.23l.17.78c-28.25,6.3-49.62,28.22-70.29,49.41-21.47,22-43.68,44.81-73.58,49.85-24.2,4.09-48-4.51-71.07-12.84-9.91-3.57-20.16-7.27-30.32-9.93-42.8-11.18-90.78-3.88-128.34,19.5-10.4,6.48-12.93,6.48-22.47,14-15,11.86,11.61-8.18,22-14.68,37.74-23.5,86-30.82,129-19.59,10.19,2.66,20.45,6.36,30.38,9.95,22.95,8.28,46.68,16.85,70.67,12.8,29.64-5,51.75-27.68,73.14-49.62C1336,263.58,1357.41,241.58,1385.9,235.23Z"/></g><g class="cls-21"><path class="cls-5" d="M1408.5,84.38c-22.57,55.12-23.15,42.65-54.17,74.35-32.11,32.8-10.66,46.69-15.42,75.92C1333,270.78,1270,250.37,1276.8,278c2.51,10.28,6.4,12.9,4.94,25.84-.63,5.61-8.31,18.85-.42,36.48s31.68,28.54,53.35,18.48c14.52-6.74,22.52-15,35.41-11.5,19.05,5.11,45.71,18.68,56.39-2.1,11.89-23.14-8.69-50.35,21.22-63.09,29.38-12.51,62.92-10.34,88.37-37.37,20.88-22.18,7.07-42.69-10.47-66.41-10.6-14.32-8.68-26.52-4.55-42.84,5.6-22.17,0-47-9.82-63.07-12.7-20.72-44.76-26.9-70.11-19.48C1424.7,57.76,1414.46,69.84,1408.5,84.38Z"/></g></g><g id="Capa_3" data-name="Capa 3"><text class="cls-22" transform="translate(618.85 166.1)"><tspan class="cls-23">M</tspan><tspan x="58.5" y="0">ON</tspan><tspan class="cls-24" x="154.02" y="0">T</tspan></text><text class="cls-25" transform="translate(567.49 209.76)"><tspan class="cls-26">b</tspan><tspan class="cls-27" x="15.14" y="0">y</tspan><tspan x="27.08" y="0"> </tspan><tspan class="cls-28" x="33.26" y="0">F</tspan><tspan x="44.46" y="0">o</tspan><tspan class="cls-29" x="59.05" y="0">n</tspan><tspan x="73" y="0">t</tspan><tspan class="cls-30" x="81.42" y="0">f</tspan><tspan x="88.99" y="0">abric</tspan><tspan class="cls-31" x="146.87" y="0"> </tspan><tspan class="cls-32" x="152.35" y="0">T</tspan><tspan x="162.49" y="0">ype </tspan><tspan class="cls-28" x="210.65" y="0">F</tspan><tspan x="221.84" y="0">ound</tspan><tspan class="cls-27" x="279.81" y="0">y</tspan></text></g></g></svg>