<svg xmlns="http://www.w3.org/2000/svg" xmlns:xlink="http://www.w3.org/1999/xlink" viewBox="0 0 1400 350"><defs><style>.cls-1{fill:none;}.cls-2{isolation:isolate;}.cls-3{fill:#190a3f;}.cls-4{clip-path:url(#clip-path);}.cls-5{fill:url(#linear-gradient);}.cls-6{fill:#636363;}.cls-10,.cls-6{mix-blend-mode:overlay;}.cls-7{opacity:0.43;}.cls-8{fill:#a883cc;}.cls-9{clip-path:url(#clip-path-2);}.cls-11,.cls-20{fill:#fff;}.cls-12{fill:#4f4f4f;}.cls-13{mix-blend-mode:color-dodge;}.cls-14{fill:url(#linear-gradient-2);}.cls-15{fill:url(#linear-gradient-3);}.cls-16{clip-path:url(#clip-path-3);}.cls-17{fill:url(#linear-gradient-4);}.cls-18{fill:url(#linear-gradient-5);}.cls-19{fill:url(#linear-gradient-6);}.cls-20{font-size:60px;}.cls-20,.cls-21{font-family:ParadroidMono-Light, ParadroidMono;font-weight:300;}.cls-21{font-size:22px;fill:#fe6000;}</style><clipPath id="clip-path"><rect class="cls-1" y="221" width="437" height="129"/></clipPath><linearGradient id="linear-gradient" x1="-262.19" y1="439.58" x2="87.9" y2="439.58" gradientTransform="matrix(-1, 0, 0, 1, 13.82, 0)" gradientUnits="userSpaceOnUse"><stop offset="0" stop-color="#0c042e"/><stop offset="0.33" stop-color="#221c3a"/><stop offset="1" stop-color="#575757"/></linearGradient><clipPath id="clip-path-2"><rect class="cls-1" x="818" width="582" height="350" transform="translate(2218 350) rotate(180)"/></clipPath><linearGradient id="linear-gradient-2" x1="-1489.88" y1="200.44" x2="-1317.38" y2="200.44" gradientTransform="matrix(-0.71, -0.71, -0.71, 0.71, 566.66, -933.81)" gradientUnits="userSpaceOnUse"><stop offset="0"/><stop offset="0.11" stop-color="#060606"/><stop offset="0.25" stop-color="#161616"/><stop offset="0.41" stop-color="#323232"/><stop offset="0.59" stop-color="#575757"/><stop offset="0.78" stop-color="#888"/><stop offset="0.97" stop-color="#c3c3c3"/><stop offset="1" stop-color="#ccc"/></linearGradient><linearGradient id="linear-gradient-3" x1="-1428.43" y1="66.29" x2="-1226.58" y2="66.29" gradientTransform="matrix(-0.71, -0.71, -0.71, 0.71, 449.43, -919.21)" xlink:href="#linear-gradient-2"/><clipPath id="clip-path-3"><rect class="cls-1" x="1262.95" y="60.52" width="447" height="131.95" transform="translate(1359.95 1612.94) rotate(-90)"/></clipPath><linearGradient id="linear-gradient-4" x1="-1554.51" y1="307.16" x2="-1196.41" y2="307.16" gradientTransform="translate(1636 1622.18) rotate(90)" xlink:href="#linear-gradient"/><linearGradient id="linear-gradient-5" x1="-1484.24" y1="407.32" x2="-1333.9" y2="407.32" gradientTransform="translate(520.25 1497.45) rotate(135)" gradientUnits="userSpaceOnUse"><stop offset="0" stop-color="#ccc"/><stop offset="0.03" stop-color="#c3c3c3"/><stop offset="0.22" stop-color="#888"/><stop offset="0.41" stop-color="#575757"/><stop offset="0.59" stop-color="#323232"/><stop offset="0.75" stop-color="#161616"/><stop offset="0.89" stop-color="#060606"/><stop offset="1"/></linearGradient><linearGradient id="linear-gradient-6" x1="-1418.13" y1="355.13" x2="-1326.94" y2="355.13" gradientTransform="translate(561.46 1471.29) rotate(135)" xlink:href="#linear-gradient-5"/></defs><g class="cls-2"><g id="Capa_1" data-name="Capa 1"><rect class="cls-3" x="-4" y="-2" width="1408" height="356" transform="translate(1400 352) rotate(180)"/></g><g id="Capa_2" data-name="Capa 2"><g class="cls-4"><path class="cls-5" d="M-74,472.66c-.84-20.66,14.17-38.28,32.43-45.87C-21,418.2-3.93,416,3.32,394.32c2.34-7,5.95-16.87,10.23-22.95,15.73-22.38,42.9-11,64-7.38,19.83,3.42,34.47-6,56.92-19.27.14-.08,50-47.24,61.39,8.52,2.12,10.33,1.79,18.5,2.52,24.1,2.89,22,22.29,24.18,49.69,41,34.67,21.22,40.24,66.1-1.58,74.67-16.07,3.29-29.38,2.12-45.07,7.14-32,10.24-33.45,40.79-61.31,49.93-10.15,4.4-24.31,3.66-33.58.74C70.84,539.51,58.75,522.94,31.13,527c-9.39,1.36-21.35,4.85-35,4.95C-39.19,532.17-72.74,505.16-74,472.66Z"/><path class="cls-6" d="M281.8,416.27c-71.2,26.17-55.1,26.84-96.05,62.81-42.38,37.23-60.31,12.36-98.08,17.87-46.68,6.82-20.31,79.85-56,72-13.28-2.92-16.67-7.42-33.38-5.73-7.26.73-24.36,9.63-47.13.48S-85.73,527-72.74,501.87C-64,485-53.41,475.76-57.88,460.81c-6.6-22.08-24.13-53,2.71-65.38,29.9-13.78,65.05,10.09,81.51-24.6C42.5,336.77,39.7,297.88,74.62,268.37c28.65-24.21,55.15-8.2,85.8,12.15,18.5,12.28,34.26,10.05,55.34,5.27,28.64-6.49,60.7-.05,81.49,11.38,26.76,14.72,34.74,51.9,25.16,81.29C316.2,397.49,300.59,409.36,281.8,416.27Z"/><g class="cls-7"><path class="cls-8" d="M23.43,465.38a98.26,98.26,0,0,1-69.95-28.95,99,99,0,0,1,0-139.89,98.26,98.26,0,0,1,70-29,98.26,98.26,0,0,1,69.95,29,99,99,0,0,1,0,139.89A98.26,98.26,0,0,1,23.43,465.38Zm0-197.29a98.4,98.4,0,1,0,98.4,98.39A98.5,98.5,0,0,0,23.43,268.09Z"/><path class="cls-8" d="M23.43,453.05A86.57,86.57,0,1,1,110,366.48,86.66,86.66,0,0,1,23.43,453.05Zm0-172.63a86.07,86.07,0,1,0,86.07,86.06A86.16,86.16,0,0,0,23.43,280.42Z"/><path class="cls-8" d="M23.43,440.72a74.24,74.24,0,1,1,74.24-74.24A74.32,74.32,0,0,1,23.43,440.72Zm0-148a73.74,73.74,0,1,0,73.74,73.73A73.81,73.81,0,0,0,23.43,292.75Z"/><path class="cls-8" d="M23.43,428.39a61.91,61.91,0,1,1,61.9-61.91A62,62,0,0,1,23.43,428.39Zm0-123.31a61.41,61.41,0,1,0,61.4,61.4A61.47,61.47,0,0,0,23.43,305.08Z"/><path class="cls-8" d="M23.43,416.06A49.58,49.58,0,1,1,73,366.48,49.63,49.63,0,0,1,23.43,416.06Zm0-98.65A49.08,49.08,0,1,0,72.5,366.48,49.12,49.12,0,0,0,23.43,317.41Z"/></g></g><g class="cls-9"><path class="cls-6" d="M1661.54,337.93c-114.33,42-88.48,43.09-154.23,100.86-68,59.77-96.84,19.84-157.48,28.69-75,10.95-32.61,128.22-89.95,115.64-21.33-4.68-26.76-11.92-53.6-9.21-11.65,1.17-39.1,15.47-75.67.78s-59.21-59-38.34-99.31c14-27,31-41.92,23.86-65.93-10.6-35.46-38.75-85.09,4.35-105,48-22.14,104.44,16.19,130.87-39.51,26-54.68,21.46-117.14,77.53-164.51,46-38.88,88.55-13.17,137.76,19.5,29.7,19.72,55,16.14,88.86,8.47,46-10.43,97.46-.09,130.84,18.27,43,23.64,55.79,83.34,40.4,130.52C1716.78,307.78,1691.7,326.84,1661.54,337.93Z"/><g class="cls-10"><path class="cls-11" d="M834.1,381.77l-.17-.78c28.25-6.3,49.62-28.22,70.29-49.41,21.47-22,43.68-44.81,73.58-49.85,24.2-4.09,48,4.51,71.07,12.84,9.91,3.57,20.16,7.27,30.32,9.93,42.8,11.18,90.78,3.88,128.34-19.5,10.4-6.48,20.26-14.25,29.8-21.77,15-11.86,30.59-24.12,48.56-31.49,33.71-13.81,71.3-9.06,107.66-4.47,6.12.78,12.45,1.58,18.62,2.27,55.84,6.24,95.8-3.59,118.76-29.21,16.68-18.61,24.62-47,21.78-77.77-2.56-27.84-12.7-54.32-22.52-79.93l.75-.29c9.84,25.67,20,52.2,22.57,80.15,2.86,31-5.15,59.6-22,78.37-13,14.48-31.33,24-54.57,28.45-18.5,3.5-39.72,3.84-64.88,1-6.18-.69-12.51-1.49-18.63-2.26-36.25-4.58-73.74-9.32-107.26,4.41-17.86,7.33-33.37,19.56-48.36,31.38-9.56,7.53-19.44,15.32-29.88,21.82-37.74,23.5-86,30.82-129,19.59-10.19-2.66-20.45-6.36-30.38-9.95-22.95-8.28-46.68-16.85-70.67-12.8-29.64,5-51.75,27.68-73.14,49.62C884,353.42,862.59,375.42,834.1,381.77Z"/></g><g class="cls-10"><path class="cls-12" d="M1516.29,540.17a158.69,158.69,0,1,1,112.31-46.48A157.78,157.78,0,0,1,1516.29,540.17Zm0-316.78c-87.12,0-158,70.87-158,158s70.87,158,158,158,158-70.87,158-158S1603.4,223.39,1516.29,223.39Z"/><path class="cls-12" d="M1516.29,520.37c-76.64,0-139-62.35-139-139s62.36-139,139-139,139,62.35,139,139S1592.93,520.37,1516.29,520.37Zm0-277.18c-76.2,0-138.19,62-138.19,138.19s62,138.19,138.19,138.19,138.19-62,138.19-138.19S1592.49,243.19,1516.29,243.19Z"/><path class="cls-12" d="M1516.29,500.58a119.2,119.2,0,1,1,119.19-119.2A119.34,119.34,0,0,1,1516.29,500.58Zm0-237.59a118.39,118.39,0,1,0,118.39,118.39A118.52,118.52,0,0,0,1516.29,263Z"/></g><g class="cls-13"><rect class="cls-14" x="1296.27" y="199.64" width="242.34" height="1.61" transform="translate(273.43 1060.99) rotate(-45)"/></g><g class="cls-13"><rect class="cls-15" x="1199.39" y="65.48" width="283.86" height="1.61" transform="translate(345.93 967.8) rotate(-45)"/></g><g class="cls-10"><path class="cls-11" d="M857.38,322.57a1.42,1.42,0,1,0-1.41-1.41A1.42,1.42,0,0,0,857.38,322.57Z"/><path class="cls-11" d="M867,322.57a1.42,1.42,0,1,0-1.42-1.41A1.41,1.41,0,0,0,867,322.57Z"/><path class="cls-11" d="M876.65,322.57a1.42,1.42,0,1,0-1.42-1.41A1.42,1.42,0,0,0,876.65,322.57Z"/><path class="cls-11" d="M886.28,322.57a1.42,1.42,0,1,0-1.41-1.41A1.41,1.41,0,0,0,886.28,322.57Z"/><path class="cls-11" d="M895.92,322.57a1.42,1.42,0,0,0,0-2.83,1.42,1.42,0,1,0,0,2.83Z"/><path class="cls-11" d="M905.55,322.57a1.42,1.42,0,1,0-1.41-1.41A1.42,1.42,0,0,0,905.55,322.57Z"/><path class="cls-11" d="M915.19,322.57a1.42,1.42,0,1,0-1.42-1.41A1.41,1.41,0,0,0,915.19,322.57Z"/><path class="cls-11" d="M924.82,322.57a1.42,1.42,0,1,0-1.42-1.41A1.42,1.42,0,0,0,924.82,322.57Z"/><path class="cls-11" d="M934.45,322.57a1.42,1.42,0,1,0-1.41-1.41A1.41,1.41,0,0,0,934.45,322.57Z"/><path class="cls-11" d="M944.09,322.57a1.42,1.42,0,0,0,0-2.83,1.42,1.42,0,1,0,0,2.83Z"/><path class="cls-11" d="M953.72,322.57a1.42,1.42,0,1,0-1.41-1.41A1.42,1.42,0,0,0,953.72,322.57Z"/><path class="cls-11" d="M963.36,322.57a1.42,1.42,0,1,0-1.42-1.41A1.41,1.41,0,0,0,963.36,322.57Z"/><path class="cls-11" d="M973,322.57a1.42,1.42,0,1,0-1.42-1.41A1.42,1.42,0,0,0,973,322.57Z"/><path class="cls-11" d="M982.62,322.57a1.42,1.42,0,1,0-1.41-1.41A1.41,1.41,0,0,0,982.62,322.57Z"/><path class="cls-11" d="M992.26,322.57a1.42,1.42,0,0,0,0-2.83,1.42,1.42,0,1,0,0,2.83Z"/><path class="cls-11" d="M1001.89,322.57a1.42,1.42,0,1,0-1.41-1.41A1.42,1.42,0,0,0,1001.89,322.57Z"/><path class="cls-11" d="M1011.53,322.57a1.42,1.42,0,1,0-1.42-1.41A1.41,1.41,0,0,0,1011.53,322.57Z"/><path class="cls-11" d="M1021.16,322.57a1.42,1.42,0,1,0-1.42-1.41A1.42,1.42,0,0,0,1021.16,322.57Z"/><path class="cls-11" d="M1030.79,322.57a1.42,1.42,0,1,0-1.41-1.41A1.41,1.41,0,0,0,1030.79,322.57Z"/><path class="cls-11" d="M1040.43,322.57a1.42,1.42,0,0,0,0-2.83,1.42,1.42,0,1,0,0,2.83Z"/><path class="cls-11" d="M1050.06,322.57a1.42,1.42,0,1,0-1.41-1.41A1.42,1.42,0,0,0,1050.06,322.57Z"/><path class="cls-11" d="M1059.7,322.57a1.42,1.42,0,1,0-1.42-1.41A1.41,1.41,0,0,0,1059.7,322.57Z"/><path class="cls-11" d="M1069.33,322.57a1.42,1.42,0,1,0-1.42-1.41A1.42,1.42,0,0,0,1069.33,322.57Z"/><path class="cls-11" d="M1079,322.57a1.42,1.42,0,1,0-1.41-1.41A1.41,1.41,0,0,0,1079,322.57Z"/><path class="cls-11" d="M1088.6,322.57a1.42,1.42,0,0,0,0-2.83,1.42,1.42,0,1,0,0,2.83Z"/><path class="cls-11" d="M1098.23,322.57a1.42,1.42,0,1,0-1.41-1.41A1.42,1.42,0,0,0,1098.23,322.57Z"/><path class="cls-11" d="M1107.87,322.57a1.42,1.42,0,1,0-1.42-1.41A1.41,1.41,0,0,0,1107.87,322.57Z"/><path class="cls-11" d="M1117.5,322.57a1.42,1.42,0,1,0-1.42-1.41A1.42,1.42,0,0,0,1117.5,322.57Z"/><path class="cls-11" d="M1127.13,322.57a1.42,1.42,0,1,0-1.41-1.41A1.41,1.41,0,0,0,1127.13,322.57Z"/><path class="cls-11" d="M857.38,332.21a1.42,1.42,0,1,0,0-2.83,1.42,1.42,0,0,0,0,2.83Z"/><path class="cls-11" d="M867,332.21a1.42,1.42,0,1,0-1.42-1.42A1.42,1.42,0,0,0,867,332.21Z"/><path class="cls-11" d="M876.65,332.21a1.42,1.42,0,1,0-1.42-1.42A1.43,1.43,0,0,0,876.65,332.21Z"/><path class="cls-11" d="M886.28,332.21a1.42,1.42,0,1,0-1.41-1.42A1.42,1.42,0,0,0,886.28,332.21Z"/><path class="cls-11" d="M895.92,332.21a1.42,1.42,0,1,0-1.42-1.42A1.42,1.42,0,0,0,895.92,332.21Z"/><path class="cls-11" d="M905.55,332.21a1.42,1.42,0,1,0,0-2.83,1.42,1.42,0,0,0,0,2.83Z"/><path class="cls-11" d="M915.19,332.21a1.42,1.42,0,1,0-1.42-1.42A1.42,1.42,0,0,0,915.19,332.21Z"/><path class="cls-11" d="M924.82,332.21a1.42,1.42,0,1,0-1.42-1.42A1.43,1.43,0,0,0,924.82,332.21Z"/><path class="cls-11" d="M934.45,332.21a1.42,1.42,0,1,0-1.41-1.42A1.42,1.42,0,0,0,934.45,332.21Z"/><path class="cls-11" d="M944.09,332.21a1.42,1.42,0,1,0-1.42-1.42A1.42,1.42,0,0,0,944.09,332.21Z"/><path class="cls-11" d="M953.72,332.21a1.42,1.42,0,1,0,0-2.83,1.42,1.42,0,0,0,0,2.83Z"/><path class="cls-11" d="M963.36,332.21a1.42,1.42,0,1,0-1.42-1.42A1.42,1.42,0,0,0,963.36,332.21Z"/><path class="cls-11" d="M973,332.21a1.42,1.42,0,1,0-1.42-1.42A1.43,1.43,0,0,0,973,332.21Z"/><path class="cls-11" d="M982.62,332.21a1.42,1.42,0,1,0-1.41-1.42A1.42,1.42,0,0,0,982.62,332.21Z"/><path class="cls-11" d="M992.26,332.21a1.42,1.42,0,1,0-1.42-1.42A1.42,1.42,0,0,0,992.26,332.21Z"/><path class="cls-11" d="M1001.89,332.21a1.42,1.42,0,1,0,0-2.83,1.42,1.42,0,0,0,0,2.83Z"/><path class="cls-11" d="M1011.53,332.21a1.42,1.42,0,1,0-1.42-1.42A1.42,1.42,0,0,0,1011.53,332.21Z"/><path class="cls-11" d="M1021.16,332.21a1.42,1.42,0,1,0-1.42-1.42A1.43,1.43,0,0,0,1021.16,332.21Z"/><path class="cls-11" d="M1030.79,332.21a1.42,1.42,0,1,0-1.41-1.42A1.42,1.42,0,0,0,1030.79,332.21Z"/><path class="cls-11" d="M1040.43,332.21a1.42,1.42,0,1,0-1.42-1.42A1.42,1.42,0,0,0,1040.43,332.21Z"/><path class="cls-11" d="M1050.06,332.21a1.42,1.42,0,1,0,0-2.83,1.42,1.42,0,0,0,0,2.83Z"/><path class="cls-11" d="M1059.7,332.21a1.42,1.42,0,1,0-1.42-1.42A1.42,1.42,0,0,0,1059.7,332.21Z"/><path class="cls-11" d="M1069.33,332.21a1.42,1.42,0,1,0-1.42-1.42A1.43,1.43,0,0,0,1069.33,332.21Z"/><path class="cls-11" d="M1079,332.21a1.42,1.42,0,1,0-1.41-1.42A1.42,1.42,0,0,0,1079,332.21Z"/><path class="cls-11" d="M1088.6,332.21a1.42,1.42,0,1,0-1.42-1.42A1.42,1.42,0,0,0,1088.6,332.21Z"/><path class="cls-11" d="M1098.23,332.21a1.42,1.42,0,1,0,0-2.83,1.42,1.42,0,0,0,0,2.83Z"/><path class="cls-11" d="M1107.87,332.21a1.42,1.42,0,1,0-1.42-1.42A1.42,1.42,0,0,0,1107.87,332.21Z"/><path class="cls-11" d="M1117.5,332.21a1.42,1.42,0,1,0-1.42-1.42A1.43,1.43,0,0,0,1117.5,332.21Z"/><path class="cls-11" d="M1127.13,332.21a1.42,1.42,0,1,0-1.41-1.42A1.42,1.42,0,0,0,1127.13,332.21Z"/><path class="cls-11" d="M857.38,341.84a1.42,1.42,0,1,0-1.41-1.41A1.42,1.42,0,0,0,857.38,341.84Z"/><path class="cls-11" d="M867,341.84a1.42,1.42,0,1,0-1.42-1.41A1.41,1.41,0,0,0,867,341.84Z"/><path class="cls-11" d="M876.65,341.84a1.42,1.42,0,1,0-1.42-1.41A1.42,1.42,0,0,0,876.65,341.84Z"/><path class="cls-11" d="M886.28,341.84a1.42,1.42,0,1,0-1.41-1.41A1.41,1.41,0,0,0,886.28,341.84Z"/><path class="cls-11" d="M895.92,341.84a1.42,1.42,0,1,0-1.42-1.41A1.41,1.41,0,0,0,895.92,341.84Z"/><path class="cls-11" d="M905.55,341.84a1.42,1.42,0,1,0-1.41-1.41A1.42,1.42,0,0,0,905.55,341.84Z"/><path class="cls-11" d="M915.19,341.84a1.42,1.42,0,1,0-1.42-1.41A1.41,1.41,0,0,0,915.19,341.84Z"/><path class="cls-11" d="M924.82,341.84a1.42,1.42,0,1,0-1.42-1.41A1.42,1.42,0,0,0,924.82,341.84Z"/><path class="cls-11" d="M934.45,341.84a1.42,1.42,0,1,0-1.41-1.41A1.41,1.41,0,0,0,934.45,341.84Z"/><path class="cls-11" d="M944.09,341.84a1.42,1.42,0,1,0-1.42-1.41A1.41,1.41,0,0,0,944.09,341.84Z"/><path class="cls-11" d="M953.72,341.84a1.42,1.42,0,1,0-1.41-1.41A1.42,1.42,0,0,0,953.72,341.84Z"/><path class="cls-11" d="M963.36,341.84a1.42,1.42,0,1,0-1.42-1.41A1.41,1.41,0,0,0,963.36,341.84Z"/><path class="cls-11" d="M973,341.84a1.42,1.42,0,1,0-1.42-1.41A1.42,1.42,0,0,0,973,341.84Z"/><path class="cls-11" d="M982.62,341.84a1.42,1.42,0,1,0-1.41-1.41A1.41,1.41,0,0,0,982.62,341.84Z"/><path class="cls-11" d="M992.26,341.84a1.42,1.42,0,1,0-1.42-1.41A1.41,1.41,0,0,0,992.26,341.84Z"/><path class="cls-11" d="M1001.89,341.84a1.42,1.42,0,1,0-1.41-1.41A1.42,1.42,0,0,0,1001.89,341.84Z"/><path class="cls-11" d="M1011.53,341.84a1.42,1.42,0,1,0-1.42-1.41A1.41,1.41,0,0,0,1011.53,341.84Z"/><path class="cls-11" d="M1021.16,341.84a1.42,1.42,0,1,0-1.42-1.41A1.42,1.42,0,0,0,1021.16,341.84Z"/><path class="cls-11" d="M1030.79,341.84a1.42,1.42,0,1,0-1.41-1.41A1.41,1.41,0,0,0,1030.79,341.84Z"/><path class="cls-11" d="M1040.43,341.84a1.42,1.42,0,1,0-1.42-1.41A1.41,1.41,0,0,0,1040.43,341.84Z"/><path class="cls-11" d="M1050.06,341.84a1.42,1.42,0,1,0-1.41-1.41A1.42,1.42,0,0,0,1050.06,341.84Z"/><path class="cls-11" d="M1059.7,341.84a1.42,1.42,0,1,0-1.42-1.41A1.41,1.41,0,0,0,1059.7,341.84Z"/><path class="cls-11" d="M1069.33,341.84a1.42,1.42,0,1,0-1.42-1.41A1.42,1.42,0,0,0,1069.33,341.84Z"/><path class="cls-11" d="M1079,341.84a1.42,1.42,0,1,0-1.41-1.41A1.41,1.41,0,0,0,1079,341.84Z"/><path class="cls-11" d="M1088.6,341.84a1.42,1.42,0,1,0-1.42-1.41A1.41,1.41,0,0,0,1088.6,341.84Z"/><path class="cls-11" d="M1098.23,341.84a1.42,1.42,0,1,0-1.41-1.41A1.42,1.42,0,0,0,1098.23,341.84Z"/><path class="cls-11" d="M1107.87,341.84a1.42,1.42,0,1,0-1.42-1.41A1.41,1.41,0,0,0,1107.87,341.84Z"/><path class="cls-11" d="M1117.5,341.84a1.42,1.42,0,1,0-1.42-1.41A1.42,1.42,0,0,0,1117.5,341.84Z"/><path class="cls-11" d="M1127.13,341.84a1.42,1.42,0,1,0-1.41-1.41A1.41,1.41,0,0,0,1127.13,341.84Z"/><path class="cls-11" d="M857.38,351.48a1.42,1.42,0,1,0-1.41-1.42A1.43,1.43,0,0,0,857.38,351.48Z"/><path class="cls-11" d="M867,351.48a1.42,1.42,0,1,0-1.42-1.42A1.42,1.42,0,0,0,867,351.48Z"/><path class="cls-11" d="M876.65,351.48a1.42,1.42,0,1,0-1.42-1.42A1.43,1.43,0,0,0,876.65,351.48Z"/><path class="cls-11" d="M886.28,351.48a1.42,1.42,0,1,0-1.41-1.42A1.42,1.42,0,0,0,886.28,351.48Z"/><path class="cls-11" d="M895.92,351.48a1.42,1.42,0,1,0-1.42-1.42A1.42,1.42,0,0,0,895.92,351.48Z"/><path class="cls-11" d="M905.55,351.48a1.42,1.42,0,1,0-1.41-1.42A1.43,1.43,0,0,0,905.55,351.48Z"/><path class="cls-11" d="M915.19,351.48a1.42,1.42,0,1,0-1.42-1.42A1.42,1.42,0,0,0,915.19,351.48Z"/><path class="cls-11" d="M924.82,351.48a1.42,1.42,0,1,0-1.42-1.42A1.43,1.43,0,0,0,924.82,351.48Z"/><path class="cls-11" d="M934.45,351.48a1.42,1.42,0,1,0-1.41-1.42A1.42,1.42,0,0,0,934.45,351.48Z"/><path class="cls-11" d="M944.09,351.48a1.42,1.42,0,1,0-1.42-1.42A1.42,1.42,0,0,0,944.09,351.48Z"/><path class="cls-11" d="M953.72,351.48a1.42,1.42,0,1,0-1.41-1.42A1.43,1.43,0,0,0,953.72,351.48Z"/><path class="cls-11" d="M963.36,351.48a1.42,1.42,0,1,0-1.42-1.42A1.42,1.42,0,0,0,963.36,351.48Z"/><path class="cls-11" d="M973,351.48a1.42,1.42,0,1,0-1.42-1.42A1.43,1.43,0,0,0,973,351.48Z"/><path class="cls-11" d="M982.62,351.48a1.42,1.42,0,1,0-1.41-1.42A1.42,1.42,0,0,0,982.62,351.48Z"/><path class="cls-11" d="M992.26,351.48a1.42,1.42,0,1,0-1.42-1.42A1.42,1.42,0,0,0,992.26,351.48Z"/><path class="cls-11" d="M1001.89,351.48a1.42,1.42,0,1,0-1.41-1.42A1.43,1.43,0,0,0,1001.89,351.48Z"/><path class="cls-11" d="M1011.53,351.48a1.42,1.42,0,1,0-1.42-1.42A1.42,1.42,0,0,0,1011.53,351.48Z"/><path class="cls-11" d="M1021.16,351.48a1.42,1.42,0,1,0-1.42-1.42A1.43,1.43,0,0,0,1021.16,351.48Z"/><path class="cls-11" d="M1030.79,351.48a1.42,1.42,0,1,0-1.41-1.42A1.42,1.42,0,0,0,1030.79,351.48Z"/><path class="cls-11" d="M1040.43,351.48a1.42,1.42,0,1,0-1.42-1.42A1.42,1.42,0,0,0,1040.43,351.48Z"/><path class="cls-11" d="M1050.06,351.48a1.42,1.42,0,1,0-1.41-1.42A1.43,1.43,0,0,0,1050.06,351.48Z"/><path class="cls-11" d="M1059.7,351.48a1.42,1.42,0,1,0-1.42-1.42A1.42,1.42,0,0,0,1059.7,351.48Z"/><path class="cls-11" d="M1069.33,351.48a1.42,1.42,0,1,0-1.42-1.42A1.43,1.43,0,0,0,1069.33,351.48Z"/><path class="cls-11" d="M1079,351.48a1.42,1.42,0,1,0-1.41-1.42A1.42,1.42,0,0,0,1079,351.48Z"/><path class="cls-11" d="M1088.6,351.48a1.42,1.42,0,1,0-1.42-1.42A1.42,1.42,0,0,0,1088.6,351.48Z"/><path class="cls-11" d="M1098.23,351.48a1.42,1.42,0,1,0-1.41-1.42A1.43,1.43,0,0,0,1098.23,351.48Z"/><path class="cls-11" d="M1107.87,351.48a1.42,1.42,0,1,0-1.42-1.42A1.42,1.42,0,0,0,1107.87,351.48Z"/><path class="cls-11" d="M1117.5,351.48a1.42,1.42,0,1,0-1.42-1.42A1.43,1.43,0,0,0,1117.5,351.48Z"/><path class="cls-11" d="M1127.13,351.48a1.42,1.42,0,1,0-1.41-1.42A1.42,1.42,0,0,0,1127.13,351.48Z"/></g></g><g class="cls-16"><path class="cls-17" d="M1295,425.74c21.13.86,39.16-14.49,46.92-33.17,8.79-21.13,11-38.55,33.22-46,7.17-2.4,17.25-6.09,23.47-10.47,22.89-16.09,11.27-43.89,7.55-65.5-3.5-20.28,6.1-35.25,19.71-58.22.09-.15,48.33-51.1-8.71-62.79-10.57-2.17-18.93-1.83-24.66-2.58-22.54-3-24.73-22.81-41.88-50.83-21.71-35.46-67.62-41.15-76.38,1.62-3.36,16.43-2.17,30.05-7.3,46.1-10.48,32.79-41.72,34.22-51.08,62.71-4.5,10.38-3.74,24.87-.75,34.35,11.52,36.54,28.46,48.9,24.35,77.16-1.4,9.6-5,21.83-5.07,35.84C1234.13,390.08,1261.76,424.4,1295,425.74Z"/><path class="cls-6" d="M1352.68,61.75c-26.76,72.83-27.45,56.36-64.25,98.25-38.08,43.35-12.63,61.69-18.28,100.32-7,47.75-81.67,20.77-73.66,57.3,3,13.59,7.59,17.05,5.87,34.15-.75,7.42-9.86,24.91-.5,48.2s37.57,37.72,63.26,24.43c17.22-8.91,26.71-19.77,42-15.2,22.59,6.75,54.21,24.68,66.87-2.77,14.11-30.58-10.31-66.53,25.17-83.37,34.84-16.54,74.62-13.67,104.8-49.39,24.77-29.31,8.39-56.41-12.42-87.76-12.56-18.92-10.28-35-5.39-56.61,6.64-29.29,0-62.09-11.64-83.35-15.06-27.38-53.09-35.54-83.15-25.74C1371.89,26.56,1359.75,42.54,1352.68,61.75Z"/><g class="cls-10"><path class="cls-11" d="M1158,362.45a62.13,62.13,0,0,0,7.9,30.47l.45-.25a61.09,61.09,0,0,1,30.57-86.81,126.59,126.59,0,0,1,13.34-4.2c8.69-2.4,17.67-4.88,24.62-10.74,16.1-13.57,14.53-38.81,10.38-57.59-.44-2-.9-4-1.36-6-4.21-18.36-8.56-37.35-.69-53.9,6.35-13.38,19.35-21.8,31.93-29.95,12.22-7.92,24.86-16.11,31.59-28.87,9.4-17.83,4.63-38.64,0-58.77-4.49-19.6-9.14-39.86-.8-57.44,7.67-16.17,23.27-24.71,39.78-33.75,11.8-6.46,24-13.14,33-22.86,14.55-15.7,19.6-39.83,12.56-60.06l-.48.17c7,20.05,2,44-12.46,59.55-8.95,9.66-21.11,16.31-32.87,22.75-16.59,9.09-32.26,17.67-40,34-8.42,17.74-3.75,38.09.76,57.77,4.6,20,9.35,40.76,0,58.42-6.67,12.65-19.25,20.8-31.42,28.68-12.63,8.19-25.7,16.65-32.12,30.16-7.94,16.71-3.57,35.79.66,54.23.46,2,.92,4,1.36,6,4.12,18.64,5.7,43.68-10.21,57.09-6.86,5.79-15.79,8.25-24.43,10.63a128.31,128.31,0,0,0-13.39,4.22,62.4,62.4,0,0,0-35.3,36.77A61,61,0,0,0,1158,362.45Z"/></g><g class="cls-13"><rect class="cls-18" x="1122.89" y="212.61" width="211.59" height="1.02" transform="translate(209.23 931.3) rotate(-45)"/></g><g class="cls-13"><rect class="cls-19" x="1216.9" y="249.14" width="127.94" height="1.02" transform="translate(198.63 978.83) rotate(-45)"/></g><g class="cls-10"><circle class="cls-11" cx="1349.16" cy="195.24" r="0.9"/><circle class="cls-11" cx="1349.16" cy="189.1" r="0.9"/><circle class="cls-11" cx="1349.16" cy="182.96" r="0.9"/><circle class="cls-11" cx="1349.16" cy="176.82" r="0.9"/><circle class="cls-11" cx="1349.16" cy="170.69" r="0.9"/><circle class="cls-11" cx="1349.16" cy="164.55" r="0.9"/><circle class="cls-11" cx="1349.16" cy="158.41" r="0.9"/><circle class="cls-11" cx="1349.16" cy="152.28" r="0.9"/><circle class="cls-11" cx="1349.16" cy="146.14" r="0.9"/><circle class="cls-11" cx="1349.16" cy="140" r="0.9"/><circle class="cls-11" cx="1349.16" cy="133.86" r="0.9"/><circle class="cls-11" cx="1349.16" cy="127.73" r="0.9"/><circle class="cls-11" cx="1349.16" cy="121.59" r="0.9"/><circle class="cls-11" cx="1349.16" cy="115.45" r="0.9"/><circle class="cls-11" cx="1349.16" cy="109.31" r="0.9"/><circle class="cls-11" cx="1349.16" cy="103.18" r="0.9"/><circle class="cls-11" cx="1349.16" cy="97.04" r="0.9"/><circle class="cls-11" cx="1349.16" cy="90.9" r="0.9"/><circle class="cls-11" cx="1349.16" cy="84.77" r="0.9"/><circle class="cls-11" cx="1349.16" cy="78.63" r="0.9"/><circle class="cls-11" cx="1349.16" cy="72.49" r="0.9"/><circle class="cls-11" cx="1349.16" cy="66.35" r="0.9"/><circle class="cls-11" cx="1349.16" cy="60.22" r="0.9"/><circle class="cls-11" cx="1349.16" cy="54.08" r="0.9"/><circle class="cls-11" cx="1349.16" cy="47.94" r="0.9"/><circle class="cls-11" cx="1349.16" cy="41.81" r="0.9"/><circle class="cls-11" cx="1349.16" cy="35.67" r="0.9"/><circle class="cls-11" cx="1349.16" cy="29.53" r="0.9"/><circle class="cls-11" cx="1343.02" cy="195.24" r="0.9"/><circle class="cls-11" cx="1343.02" cy="189.1" r="0.9"/><circle class="cls-11" cx="1343.02" cy="182.96" r="0.9"/><circle class="cls-11" cx="1343.02" cy="176.82" r="0.9"/><circle class="cls-11" cx="1343.02" cy="170.69" r="0.9"/><circle class="cls-11" cx="1343.02" cy="164.55" r="0.9"/><circle class="cls-11" cx="1343.02" cy="158.41" r="0.9"/><circle class="cls-11" cx="1343.02" cy="152.28" r="0.9"/><circle class="cls-11" cx="1343.02" cy="146.14" r="0.9"/><circle class="cls-11" cx="1343.02" cy="140" r="0.9"/><circle class="cls-11" cx="1343.02" cy="133.86" r="0.9"/><circle class="cls-11" cx="1343.02" cy="127.73" r="0.9"/><circle class="cls-11" cx="1343.02" cy="121.59" r="0.9"/><circle class="cls-11" cx="1343.02" cy="115.45" r="0.9"/><circle class="cls-11" cx="1343.02" cy="109.31" r="0.9"/><circle class="cls-11" cx="1343.02" cy="103.18" r="0.9"/><circle class="cls-11" cx="1343.02" cy="97.04" r="0.9"/><circle class="cls-11" cx="1343.02" cy="90.9" r="0.9"/><circle class="cls-11" cx="1343.02" cy="84.77" r="0.9"/><circle class="cls-11" cx="1343.02" cy="78.63" r="0.9"/><circle class="cls-11" cx="1343.02" cy="72.49" r="0.9"/><circle class="cls-11" cx="1343.02" cy="66.35" r="0.9"/><circle class="cls-11" cx="1343.02" cy="60.22" r="0.9"/><circle class="cls-11" cx="1343.02" cy="54.08" r="0.9"/><circle class="cls-11" cx="1343.02" cy="47.94" r="0.9"/><circle class="cls-11" cx="1343.02" cy="41.81" r="0.9"/><circle class="cls-11" cx="1343.02" cy="35.67" r="0.9"/><circle class="cls-11" cx="1343.02" cy="29.53" r="0.9"/><circle class="cls-11" cx="1336.88" cy="195.24" r="0.9"/><circle class="cls-11" cx="1336.88" cy="189.1" r="0.9"/><circle class="cls-11" cx="1336.88" cy="182.96" r="0.9"/><circle class="cls-11" cx="1336.88" cy="176.82" r="0.9"/><circle class="cls-11" cx="1336.88" cy="170.69" r="0.9"/><circle class="cls-11" cx="1336.88" cy="164.55" r="0.9"/><circle class="cls-11" cx="1336.88" cy="158.41" r="0.9"/><circle class="cls-11" cx="1336.88" cy="152.28" r="0.9"/><circle class="cls-11" cx="1336.88" cy="146.14" r="0.9"/><circle class="cls-11" cx="1336.88" cy="140" r="0.9"/><circle class="cls-11" cx="1336.88" cy="133.86" r="0.9"/><circle class="cls-11" cx="1336.88" cy="127.73" r="0.9"/><circle class="cls-11" cx="1336.88" cy="121.59" r="0.9"/><circle class="cls-11" cx="1336.88" cy="115.45" r="0.9"/><circle class="cls-11" cx="1336.88" cy="109.31" r="0.9"/><circle class="cls-11" cx="1336.88" cy="103.18" r="0.9"/><circle class="cls-11" cx="1336.88" cy="97.04" r="0.9"/><circle class="cls-11" cx="1336.88" cy="90.9" r="0.9"/><circle class="cls-11" cx="1336.88" cy="84.77" r="0.9"/><circle class="cls-11" cx="1336.88" cy="78.63" r="0.9"/><circle class="cls-11" cx="1336.88" cy="72.49" r="0.9"/><circle class="cls-11" cx="1336.88" cy="66.35" r="0.9"/><circle class="cls-11" cx="1336.88" cy="60.22" r="0.9"/><circle class="cls-11" cx="1336.88" cy="54.08" r="0.9"/><circle class="cls-11" cx="1336.88" cy="47.94" r="0.9"/><circle class="cls-11" cx="1336.88" cy="41.81" r="0.9"/><circle class="cls-11" cx="1336.88" cy="35.67" r="0.9"/><circle class="cls-11" cx="1336.88" cy="29.53" r="0.9"/><circle class="cls-11" cx="1330.74" cy="195.24" r="0.9"/><circle class="cls-11" cx="1330.74" cy="189.1" r="0.9"/><circle class="cls-11" cx="1330.74" cy="182.96" r="0.9"/><circle class="cls-11" cx="1330.74" cy="176.82" r="0.9"/><circle class="cls-11" cx="1330.74" cy="170.69" r="0.9"/><circle class="cls-11" cx="1330.74" cy="164.55" r="0.9"/><circle class="cls-11" cx="1330.74" cy="158.41" r="0.9"/><circle class="cls-11" cx="1330.74" cy="152.28" r="0.9"/><circle class="cls-11" cx="1330.74" cy="146.14" r="0.9"/><circle class="cls-11" cx="1330.74" cy="140" r="0.9"/><circle class="cls-11" cx="1330.74" cy="133.86" r="0.9"/><circle class="cls-11" cx="1330.74" cy="127.73" r="0.9"/><circle class="cls-11" cx="1330.74" cy="121.59" r="0.9"/><circle class="cls-11" cx="1330.74" cy="115.45" r="0.9"/><circle class="cls-11" cx="1330.74" cy="109.31" r="0.9"/><circle class="cls-11" cx="1330.74" cy="103.18" r="0.9"/><circle class="cls-11" cx="1330.74" cy="97.04" r="0.9"/><circle class="cls-11" cx="1330.74" cy="90.9" r="0.9"/><circle class="cls-11" cx="1330.74" cy="84.77" r="0.9"/><circle class="cls-11" cx="1330.74" cy="78.63" r="0.9"/><circle class="cls-11" cx="1330.74" cy="72.49" r="0.9"/><circle class="cls-11" cx="1330.74" cy="66.35" r="0.9"/><circle class="cls-11" cx="1330.74" cy="60.22" r="0.9"/><circle class="cls-11" cx="1330.74" cy="54.08" r="0.9"/><circle class="cls-11" cx="1330.74" cy="47.94" r="0.9"/><circle class="cls-11" cx="1330.74" cy="41.81" r="0.9"/><circle class="cls-11" cx="1330.74" cy="35.67" r="0.9"/><circle class="cls-11" cx="1330.74" cy="29.53" r="0.9"/><circle class="cls-11" cx="1324.61" cy="195.24" r="0.9"/><circle class="cls-11" cx="1324.61" cy="189.1" r="0.9"/><circle class="cls-11" cx="1324.61" cy="182.96" r="0.9"/><circle class="cls-11" cx="1324.61" cy="176.82" r="0.9"/><circle class="cls-11" cx="1324.61" cy="170.69" r="0.9"/><circle class="cls-11" cx="1324.61" cy="164.55" r="0.9"/><circle class="cls-11" cx="1324.61" cy="158.41" r="0.9"/><circle class="cls-11" cx="1324.61" cy="152.28" r="0.9"/><circle class="cls-11" cx="1324.61" cy="146.14" r="0.9"/><circle class="cls-11" cx="1324.61" cy="140" r="0.9"/><circle class="cls-11" cx="1324.61" cy="133.86" r="0.9"/><circle class="cls-11" cx="1324.61" cy="127.73" r="0.9"/><circle class="cls-11" cx="1324.61" cy="121.59" r="0.9"/><circle class="cls-11" cx="1324.61" cy="115.45" r="0.9"/><circle class="cls-11" cx="1324.61" cy="109.31" r="0.9"/><circle class="cls-11" cx="1324.61" cy="103.18" r="0.9"/><circle class="cls-11" cx="1324.61" cy="97.04" r="0.9"/><circle class="cls-11" cx="1324.61" cy="90.9" r="0.9"/><circle class="cls-11" cx="1324.61" cy="84.77" r="0.9"/><circle class="cls-11" cx="1324.61" cy="78.63" r="0.9"/><circle class="cls-11" cx="1324.61" cy="72.49" r="0.9"/><circle class="cls-11" cx="1324.61" cy="66.35" r="0.9"/><circle class="cls-11" cx="1324.61" cy="60.22" r="0.9"/><circle class="cls-11" cx="1324.61" cy="54.08" r="0.9"/><circle class="cls-11" cx="1324.61" cy="47.94" r="0.9"/><circle class="cls-11" cx="1324.61" cy="41.81" r="0.9"/><circle class="cls-11" cx="1324.61" cy="35.67" r="0.9"/><circle class="cls-11" cx="1324.61" cy="29.53" r="0.9"/><circle class="cls-11" cx="1318.47" cy="195.24" r="0.9"/><circle class="cls-11" cx="1318.47" cy="189.1" r="0.9"/><circle class="cls-11" cx="1318.47" cy="182.96" r="0.9"/><circle class="cls-11" cx="1318.47" cy="176.82" r="0.9"/><circle class="cls-11" cx="1318.47" cy="170.69" r="0.9"/><circle class="cls-11" cx="1318.47" cy="164.55" r="0.9"/><circle class="cls-11" cx="1318.47" cy="158.41" r="0.9"/><circle class="cls-11" cx="1318.47" cy="152.28" r="0.9"/><circle class="cls-11" cx="1318.47" cy="146.14" r="0.9"/><circle class="cls-11" cx="1318.47" cy="140" r="0.9"/><circle class="cls-11" cx="1318.47" cy="133.86" r="0.9"/><circle class="cls-11" cx="1318.47" cy="127.73" r="0.9"/><circle class="cls-11" cx="1318.47" cy="121.59" r="0.9"/><circle class="cls-11" cx="1318.47" cy="115.45" r="0.9"/><circle class="cls-11" cx="1318.47" cy="109.31" r="0.9"/><circle class="cls-11" cx="1318.47" cy="103.18" r="0.9"/><circle class="cls-11" cx="1318.47" cy="97.04" r="0.9"/><circle class="cls-11" cx="1318.47" cy="90.9" r="0.9"/><circle class="cls-11" cx="1318.47" cy="84.77" r="0.9"/><circle class="cls-11" cx="1318.47" cy="78.63" r="0.9"/><circle class="cls-11" cx="1318.47" cy="72.49" r="0.9"/><circle class="cls-11" cx="1318.47" cy="66.35" r="0.9"/><circle class="cls-11" cx="1318.47" cy="60.22" r="0.9"/><circle class="cls-11" cx="1318.47" cy="54.08" r="0.9"/><circle class="cls-11" cx="1318.47" cy="47.94" r="0.9"/><circle class="cls-11" cx="1318.47" cy="41.81" r="0.9"/><circle class="cls-11" cx="1318.47" cy="35.67" r="0.9"/><circle class="cls-11" cx="1318.47" cy="29.53" r="0.9"/></g><g class="cls-7"><path class="cls-8" d="M1332.06,254.48A101.25,101.25,0,1,1,1302.45,326,100.55,100.55,0,0,1,1332.06,254.48Zm71.55-29.1A100.65,100.65,0,1,0,1504.25,326,100.76,100.76,0,0,0,1403.61,225.38Z"/><path class="cls-8" d="M1403.61,237.49A88.55,88.55,0,1,1,1315.06,326,88.64,88.64,0,0,1,1403.61,237.49Zm0,.51a88,88,0,1,0,88,88A88.14,88.14,0,0,0,1403.61,238Z"/><path class="cls-8" d="M1403.61,250.1A75.93,75.93,0,1,1,1327.68,326,76,76,0,0,1,1403.61,250.1Zm0,.51A75.42,75.42,0,1,0,1479,326,75.5,75.5,0,0,0,1403.61,250.61Z"/><path class="cls-8" d="M1403.61,262.71A63.32,63.32,0,1,1,1340.29,326,63.4,63.4,0,0,1,1403.61,262.71Zm0,.51A62.81,62.81,0,1,0,1466.42,326,62.89,62.89,0,0,0,1403.61,263.22Z"/><path class="cls-8" d="M1403.61,275.32A50.71,50.71,0,1,1,1352.9,326,50.76,50.76,0,0,1,1403.61,275.32Zm0,.52A50.2,50.2,0,1,0,1453.8,326,50.25,50.25,0,0,0,1403.61,275.84Z"/></g></g></g><g id="Capa_3" data-name="Capa 3"><text class="cls-20" transform="translate(539.64 168.8)">Paradroid</text><text class="cls-21" transform="translate(569.86 208.64)">by The Northen Block</text></g></g></svg>